<svg width="33" height="33" viewBox="0 0 33 33" fill="none" xmlns="http://www.w3.org/2000/svg">
<path d="M7.21875 15.4688H27.8438C28.1173 15.4688 28.3796 15.5774 28.573 15.7708C28.7664 15.9642 28.875 16.2265 28.875 16.5C28.875 16.7735 28.7664 17.0358 28.573 17.2292C28.3796 17.4226 28.1173 17.5312 27.8438 17.5312H7.21875C6.94525 17.5312 6.68294 17.4226 6.48955 17.2292C6.29615 17.0358 6.1875 16.7735 6.1875 16.5C6.1875 16.2265 6.29615 15.9642 6.48955 15.7708C6.68294 15.5774 6.94525 15.4688 7.21875 15.4688Z" fill="#5D5D5D"/>
<path d="M7.6457 16.5001L16.1989 25.0512C16.3925 25.2448 16.5013 25.5075 16.5013 25.7813C16.5013 26.0552 16.3925 26.3178 16.1989 26.5115C16.0052 26.7051 15.7426 26.8139 15.4688 26.8139C15.1949 26.8139 14.9323 26.7051 14.7386 26.5115L5.45739 17.2302C5.36135 17.1344 5.28516 17.0206 5.23317 16.8953C5.18118 16.77 5.15442 16.6357 5.15442 16.5001C5.15442 16.3644 5.18118 16.2301 5.23317 16.1048C5.28516 15.9796 5.36135 15.8658 5.45739 15.77L14.7386 6.48871C14.9323 6.29507 15.1949 6.18628 15.4688 6.18628C15.7426 6.18628 16.0052 6.29507 16.1989 6.48871C16.3925 6.68235 16.5013 6.94498 16.5013 7.21883C16.5013 7.49268 16.3925 7.75532 16.1989 7.94896L7.6457 16.5001Z" fill="#5D5D5D"/>
</svg>
