<svg width="27" height="25" viewBox="0 0 27 25" fill="none" xmlns="http://www.w3.org/2000/svg">
<path d="M2.66667 3.16667H6.66667L9.33333 0.5H17.3333L20 3.16667H24C24.7072 3.16667 25.3855 3.44762 25.8856 3.94772C26.3857 4.44781 26.6667 5.12609 26.6667 5.83333V21.8333C26.6667 22.5406 26.3857 23.2189 25.8856 23.719C25.3855 24.219 24.7072 24.5 24 24.5H2.66667C1.95942 24.5 1.28115 24.219 0.781048 23.719C0.280951 23.2189 0 22.5406 0 21.8333V5.83333C0 5.12609 0.280951 4.44781 0.781048 3.94772C1.28115 3.44762 1.95942 3.16667 2.66667 3.16667ZM13.3333 7.16667C11.5652 7.16667 9.86953 7.86905 8.61929 9.11929C7.36905 10.3695 6.66667 12.0652 6.66667 13.8333C6.66667 15.6014 7.36905 17.2971 8.61929 18.5474C9.86953 19.7976 11.5652 20.5 13.3333 20.5C15.1014 20.5 16.7971 19.7976 18.0474 18.5474C19.2976 17.2971 20 15.6014 20 13.8333C20 12.0652 19.2976 10.3695 18.0474 9.11929C16.7971 7.86905 15.1014 7.16667 13.3333 7.16667ZM13.3333 9.83333C14.3942 9.83333 15.4116 10.2548 16.1618 11.0049C16.9119 11.7551 17.3333 12.7725 17.3333 13.8333C17.3333 14.8942 16.9119 15.9116 16.1618 16.6618C15.4116 17.4119 14.3942 17.8333 13.3333 17.8333C12.2725 17.8333 11.2551 17.4119 10.5049 16.6618C9.75476 15.9116 9.33333 14.8942 9.33333 13.8333C9.33333 12.7725 9.75476 11.7551 10.5049 11.0049C11.2551 10.2548 12.2725 9.83333 13.3333 9.83333Z" fill="#021258"/>
</svg>
