<svg width="28" height="28" viewBox="0 0 28 28" fill="none" xmlns="http://www.w3.org/2000/svg">
<g filter="url(#filter0_d_178_690)">
<circle cx="14" cy="13" r="13" fill="#E12929"/>
</g>
<path d="M18.4251 17.1508V13.5843H13.4526C13.3071 13.5843 13.1675 13.5265 13.0646 13.4236C12.9617 13.3207 12.9039 13.1811 12.9039 13.0356C12.9039 12.8901 12.9617 12.7505 13.0646 12.6476C13.1675 12.5447 13.3071 12.4869 13.4526 12.4869H18.4251V8.92042C18.4246 8.41126 18.2221 7.92311 17.862 7.56308C17.502 7.20305 17.0139 7.00054 16.5047 7H9.92042C9.41126 7.00054 8.92311 7.20305 8.56308 7.56308C8.20305 7.92311 8.00054 8.41126 8 8.92042V17.1508C8.00054 17.6599 8.20305 18.1481 8.56308 18.5081C8.92311 18.8681 9.41126 19.0707 9.92042 19.0712H16.5047C17.0139 19.0707 17.502 18.8681 17.862 18.5081C18.2221 18.1481 18.4246 17.6599 18.4251 17.1508ZM21.4899 13.5843L19.6833 15.3912C19.5848 15.4949 19.5307 15.6331 19.5325 15.7761C19.5343 15.9192 19.592 16.0559 19.6931 16.1571C19.7943 16.2583 19.931 16.3159 20.0741 16.3178C20.2172 16.3196 20.3553 16.2655 20.4591 16.1669L23.2025 13.4235C23.3053 13.3206 23.3631 13.1811 23.3631 13.0356C23.3631 12.8901 23.3053 12.7506 23.2025 12.6477L20.4591 9.90429C20.3553 9.80573 20.2172 9.7516 20.0741 9.75343C19.931 9.75526 19.7943 9.81292 19.6931 9.9141C19.592 10.0153 19.5343 10.152 19.5325 10.2951C19.5307 10.4381 19.5848 10.5763 19.6833 10.68L21.4899 12.4869H18.4251V13.5843H21.4899Z" fill="white"/>
<defs>
<filter id="filter0_d_178_690" x="0.223881" y="0" width="27.5522" height="27.5522" filterUnits="userSpaceOnUse" color-interpolation-filters="sRGB">
<feFlood flood-opacity="0" result="BackgroundImageFix"/>
<feColorMatrix in="SourceAlpha" type="matrix" values="0 0 0 0 0 0 0 0 0 0 0 0 0 0 0 0 0 0 127 0" result="hardAlpha"/>
<feOffset dy="0.776119"/>
<feGaussianBlur stdDeviation="0.38806"/>
<feComposite in2="hardAlpha" operator="out"/>
<feColorMatrix type="matrix" values="0 0 0 0 0 0 0 0 0 0 0 0 0 0 0 0 0 0 0.25 0"/>
<feBlend mode="normal" in2="BackgroundImageFix" result="effect1_dropShadow_178_690"/>
<feBlend mode="normal" in="SourceGraphic" in2="effect1_dropShadow_178_690" result="shape"/>
</filter>
</defs>
</svg>
