<svg width="17" height="17" viewBox="0 0 17 17" fill="none" xmlns="http://www.w3.org/2000/svg">
<path d="M8.50002 0C6.81888 0 5.17549 0.498518 3.77767 1.43251C2.37984 2.36651 1.29038 3.69403 0.647029 5.2472C0.00368293 6.80038 -0.164646 8.50945 0.163329 10.1583C0.491305 11.8071 1.30085 13.3217 2.4896 14.5104C3.67835 15.6992 5.19291 16.5087 6.84175 16.8367C8.4906 17.1647 10.1997 16.9964 11.7528 16.353C13.306 15.7097 14.6335 14.6202 15.5675 13.2224C16.5015 11.8246 17 10.1812 17 8.50002C16.9977 6.24641 16.1014 4.08577 14.5078 2.49223C12.9143 0.898679 10.7536 0.00237986 8.50002 0ZM13.077 9.15387H8.50002C8.32661 9.15387 8.16031 9.08498 8.03768 8.96236C7.91506 8.83974 7.84618 8.67343 7.84618 8.50002V3.92309C7.84618 3.74968 7.91506 3.58337 8.03768 3.46075C8.16031 3.33813 8.32661 3.26924 8.50002 3.26924C8.67344 3.26924 8.83974 3.33813 8.96237 3.46075C9.08499 3.58337 9.15387 3.74968 9.15387 3.92309V7.84617H13.077C13.2504 7.84617 13.4167 7.91506 13.5393 8.03768C13.6619 8.1603 13.7308 8.32661 13.7308 8.50002C13.7308 8.67343 13.6619 8.83974 13.5393 8.96236C13.4167 9.08498 13.2504 9.15387 13.077 9.15387Z" fill="#959595"/>
</svg>
