<svg width="19" height="20" viewBox="0 0 19 20" fill="none" xmlns="http://www.w3.org/2000/svg">
<path fill-rule="evenodd" clip-rule="evenodd" d="M9.24506 3.52759H2.22237C0.994511 3.52759 0 4.5821 0 5.88108V17.6463C0 18.9464 0.994511 19.9998 2.22237 19.9998H14.4454C15.6733 19.9998 16.6678 18.9464 16.6678 17.6463V9.03462L12.3186 13.6394C11.9388 14.0455 11.4442 14.3262 10.9007 14.4439L7.92164 15.075C5.97706 15.4862 4.26362 13.6716 4.65253 11.6137L5.24813 8.45903C5.35591 7.8901 5.62037 7.36673 6.00818 6.9567L9.24506 3.52759Z" fill="white"/>
<path fill-rule="evenodd" clip-rule="evenodd" d="M18.7192 1.46348C18.6069 1.17905 18.4422 0.918222 18.2337 0.694537C18.0286 0.475777 17.7814 0.300772 17.5069 0.180059C17.2365 0.0613135 16.9444 0 16.6491 0C16.3538 0 16.0617 0.0613135 15.7913 0.180059C15.5168 0.300772 15.2696 0.475777 15.0646 0.694537L14.4578 1.3368L17.6269 4.69258L18.2337 4.04921C18.4444 3.82722 18.6094 3.56594 18.7192 3.28027C18.9482 2.6963 18.9482 2.04744 18.7192 1.46348ZM16.0568 6.35603L12.8866 2.99914L7.5785 8.62173C7.50018 8.70518 7.44736 8.80927 7.42627 8.92175L6.83067 12.0775C6.75289 12.4887 7.09624 12.8509 7.48405 12.7687L10.4642 12.1386C10.5727 12.1145 10.6714 12.0583 10.7476 11.9775L16.0568 6.35603Z" fill="white"/>
</svg>
