<svg width="241" height="202" viewBox="0 0 241 202" fill="none" xmlns="http://www.w3.org/2000/svg">
<path d="M120.5 201.202C187.05 201.202 241 194.202 241 185.566C241 176.93 187.05 169.93 120.5 169.93C53.9497 169.93 0 176.93 0 185.566C0 194.202 53.9497 201.202 120.5 201.202Z" fill="#F5F5F5"/>
<path d="M217.811 144.329L96.9753 126.508C93.3554 125.974 90.8538 122.607 91.3875 118.987L104.304 31.4032C104.838 27.7833 108.205 25.2817 111.825 25.8154L232.661 43.6359C236.281 44.1696 238.782 47.537 238.248 51.1569L225.332 138.741C224.798 142.361 221.431 144.862 217.811 144.329Z" fill="#F5F5F5"/>
<path d="M211.888 135.906L90.6977 151.126C87.067 151.582 83.7548 149.008 83.2986 145.378L72.2669 57.5362C71.8108 53.9055 74.3843 50.5927 78.0149 50.1371L199.206 34.9176C202.836 34.4615 206.149 37.035 206.605 40.6656L217.637 128.507C218.093 132.137 215.519 135.45 211.888 135.906Z" fill="#F5F5F5"/>
<path d="M93.2233 144.309C92.6717 144.378 92.1681 143.987 92.0993 143.435L81.8951 62.1818C81.8257 61.6303 82.217 61.1267 82.7686 61.0573C83.3201 60.9879 83.8237 61.3792 83.8931 61.9308L94.0972 143.184C94.1656 143.736 93.7748 144.239 93.2233 144.309Z" fill="#D6D6D6"/>
<path d="M105.801 142.451C105.249 142.52 104.746 142.129 104.676 141.577L94.4723 60.3238C94.4029 59.7723 94.7942 59.2687 95.3457 59.1999C95.8973 59.1305 96.4008 59.5218 96.4697 60.0733L106.674 141.327C106.744 141.878 106.352 142.381 105.801 142.451Z" fill="#D6D6D6"/>
<path d="M118.379 140.592C117.827 140.662 117.323 140.27 117.254 139.719L107.05 58.4655C106.981 57.9139 107.372 57.4104 107.923 57.341C108.475 57.2716 108.978 57.6629 109.047 58.2145L119.252 139.468C119.321 140.019 118.93 140.523 118.379 140.592Z" fill="#D6D6D6"/>
<path d="M130.956 138.734C130.405 138.803 129.901 138.412 129.832 137.86L119.628 56.6071C119.558 56.0555 119.95 55.552 120.501 55.4826C121.053 55.4132 121.556 55.8045 121.626 56.3561L131.83 137.609C131.899 138.161 131.508 138.664 130.956 138.734Z" fill="#D6D6D6"/>
<path d="M143.534 136.875C142.983 136.945 142.479 136.553 142.41 136.002L132.206 54.7487C132.137 54.1971 132.528 53.6935 133.08 53.6247C133.631 53.5553 134.135 53.9466 134.204 54.4981L144.408 135.751C144.477 136.303 144.086 136.806 143.534 136.875Z" fill="#D6D6D6"/>
<path d="M156.112 135.017C155.561 135.086 155.057 134.695 154.988 134.143L144.784 52.8898C144.715 52.3383 145.106 51.8347 145.657 51.7653C146.209 51.6959 146.712 52.0872 146.781 52.6388L156.986 133.892C157.054 134.444 156.664 134.948 156.112 135.017Z" fill="#D6D6D6"/>
<path d="M168.69 133.159C168.138 133.228 167.635 132.837 167.566 132.285L157.362 51.0319C157.292 50.4803 157.683 49.9768 158.235 49.9074C158.787 49.838 159.29 50.2293 159.359 50.7809L169.563 132.034C169.633 132.586 169.241 133.089 168.69 133.159Z" fill="#D6D6D6"/>
<path d="M181.267 131.301C180.716 131.37 180.212 130.979 180.143 130.427L169.939 49.174C169.87 48.6224 170.261 48.1188 170.813 48.05C171.364 47.9806 171.868 48.3719 171.937 48.9234L182.141 130.177C182.21 130.728 181.819 131.231 181.267 131.301Z" fill="#D6D6D6"/>
<path d="M193.845 129.442C193.294 129.511 192.79 129.12 192.721 128.568L182.516 47.3151C182.447 46.7635 182.838 46.26 183.39 46.1911C183.941 46.1217 184.445 46.513 184.514 47.0646L194.718 128.318C194.788 128.869 194.397 129.373 193.845 129.442Z" fill="#D6D6D6"/>
<path d="M206.423 127.583C205.872 127.653 205.368 127.261 205.299 126.71L195.095 45.4567C195.026 44.9052 195.417 44.4016 195.969 44.3322C196.52 44.2628 197.024 44.6541 197.093 45.2057L207.297 126.459C207.366 127.011 206.975 127.514 206.423 127.583Z" fill="#D6D6D6"/>
<path d="M101.839 47.1456L197.634 34.6429C202.455 34.0138 206.853 37.4633 207.392 42.295L211.971 83.3928" stroke="#262626" stroke-width="0.211583" stroke-miterlimit="10" stroke-linecap="round" stroke-linejoin="round"/>
<path d="M228.32 182.821L106.49 176.49C102.795 176.298 99.9559 173.147 100.148 169.452L104.853 78.9077C105.045 75.2128 108.196 72.3735 111.891 72.5653L233.721 78.8965C237.416 79.0883 240.255 82.2394 240.063 85.9343L235.358 176.478C235.166 180.173 232.015 183.013 228.32 182.821Z" fill="#F5F5F5"/>
<path d="M228.32 182.821L106.49 176.49C102.795 176.298 99.9559 173.147 100.148 169.452L104.853 78.9077C105.045 75.2128 108.196 72.3735 111.891 72.5653L233.721 78.8965C237.416 79.0883 240.255 82.2394 240.063 85.9343L235.358 176.478C235.166 180.173 232.015 183.013 228.32 182.821Z" stroke="#262626" stroke-width="0.211583" stroke-miterlimit="10" stroke-linecap="round" stroke-linejoin="round"/>
<path d="M126.543 83.3927L113.101 66.0064C111.651 64.1319 109.428 63.0063 107.173 63.0063H72.4491C68.72 63.0063 66.0138 66.0293 66.4041 69.7584L67.8322 83.3927L67.8858 83.903L77.7634 178.2C78.1542 181.929 81.4935 184.952 85.2227 184.952H223.338C227.067 184.952 229.773 181.929 229.383 178.2L220.16 90.1448C219.769 86.4157 216.429 83.3927 212.7 83.3927H126.543Z" fill="#021258"/>
<path d="M143.775 146.668C143.011 143.754 142.62 141.408 142.598 139.63C142.577 137.853 143.014 136.223 143.91 134.741C144.419 133.852 145.057 133.087 145.828 132.445C146.598 131.803 147.284 131.124 147.887 130.407C148.49 129.692 148.946 128.888 149.257 128C149.567 127.111 149.535 125.951 149.16 124.518C148.527 122.099 147.417 120.406 145.831 119.444C144.246 118.48 142.538 117.999 140.712 117.999C138.093 117.999 136.482 118.728 135.876 120.184C135.269 121.641 135.166 123.605 135.566 126.074H126.01C125.377 123.655 125.195 121.457 125.469 119.481C125.741 117.506 126.426 115.826 127.52 114.443C128.615 113.061 130.09 111.998 131.946 111.258C133.801 110.517 135.963 110.146 138.433 110.146C143.767 110.146 148.261 111.233 151.918 113.406C155.573 115.58 158.042 119.11 159.323 124C159.737 125.581 159.938 126.963 159.928 128.149C159.917 129.334 159.716 130.408 159.327 131.371C158.937 132.334 158.382 133.236 157.665 134.075C156.946 134.916 156.11 135.779 155.158 136.668C154.291 137.508 153.618 138.287 153.139 139.002C152.66 139.718 152.35 140.472 152.212 141.262C152.074 142.052 152.068 142.88 152.196 143.743C152.323 144.608 152.53 145.584 152.814 146.669H143.775V146.668ZM147.223 160.966L144.682 151.262H154.682L157.224 160.966H147.223Z" fill="#69122A"/>
<path d="M67.8322 83.3931L67.8858 83.9033" stroke="#262626" stroke-width="0.237604" stroke-miterlimit="10" stroke-linecap="round" stroke-linejoin="round"/>
<path d="M229.383 178.2L220.16 90.1448C219.769 86.4157 216.429 83.3927 212.7 83.3927H126.543L113.101 66.0064C111.651 64.1319 109.428 63.0063 107.173 63.0063H72.4491" stroke="#262626" stroke-width="0.237604" stroke-miterlimit="10" stroke-linecap="round" stroke-linejoin="round"/>
<path d="M58.6234 99.2541V103.172C58.6234 103.172 65.0189 130.002 66.2669 133.59C67.5149 137.178 61.899 171.729 61.899 171.729H43.181L45.5565 133.278L25.1742 169.197L8.4516 159.328C8.4516 159.328 24.716 128.73 25.1742 123.205C25.6324 117.679 23.9941 92.2285 23.9941 92.2285L58.6234 99.2541Z" fill="#335CFF"/>
<path d="M34.0584 94.2705C34.0584 94.2705 35.9544 121.117 34.609 125.835C33.2635 130.553 17.4231 164.623 17.4231 164.623" stroke="#262626" stroke-width="0.211583" stroke-miterlimit="10" stroke-linecap="round" stroke-linejoin="round"/>
<path d="M45.5437 132.696C44.756 145.707 43.9687 158.718 43.181 171.729H51.3974L48.4535 125.834C48.2846 126.978 47.9218 128.526 47.0978 130.202C46.6024 131.211 46.0504 132.039 45.5437 132.696Z" fill="#335CFF"/>
<path d="M42.5279 110.388L39.5008 108.178H40.9717C41.8927 108.178 42.5468 107.281 42.2651 106.404C42.1978 106.194 42.0019 106.052 41.7809 106.048C40.8416 106.032 40.0569 105.989 39.4758 105.948C38.0937 105.851 37.3901 105.799 36.7901 105.585C35.8054 105.234 35.6717 104.883 34.6646 104.532C34.0549 104.319 33.4952 104.236 33.037 104.208C30.7982 102.289 28.9742 100.146 27.6686 97.7935L24.8726 108.061C24.8002 108.046 24.964 109.004 24.9175 109.04C26.4757 109.796 27.7533 110.189 29.1421 110.664C29.2829 111.207 29.5109 111.815 29.888 112.429C30.4727 113.38 31.1278 113.882 32.3645 114.827C32.6105 115.016 32.4217 114.86 35.4814 116.54C35.7676 116.697 36.3069 116.993 36.6931 116.777C37.0141 116.598 37.1319 116.118 37.1416 116.075C37.1942 115.85 37.1738 115.657 37.1513 115.539C37.2217 115.597 37.3294 115.675 37.4727 115.742C37.86 115.922 38.5743 116.049 39.0039 115.627C39.383 115.254 39.3161 114.672 39.3008 114.536C39.2738 114.297 39.1942 114.11 39.1309 113.989L39.6748 114.206C40.0626 114.361 40.5039 114.3 40.835 114.046C41.457 113.567 41.4493 112.627 40.8192 112.159L40.6319 112.02L41.6743 112.259C42.0733 112.351 42.4891 112.203 42.7396 111.879C43.1014 111.411 43.0059 110.736 42.5279 110.388Z" fill="#335CFF"/>
<path d="M57.5056 54.8542C57.5056 54.8542 71.9123 83.3167 73.5327 86.5943C75.1532 89.8719 86.9885 103.141 86.9885 103.141L79.5119 108.058C76.321 105.359 73.1302 102.66 69.9394 99.9607C67.8475 98.0867 65.7551 95.9357 63.7541 93.4653C52.3433 79.3779 50.4621 63.0135 50.2484 53.9517L57.5056 54.8542Z" fill="#F7A99C"/>
<path d="M68.9077 77.4042C68.6424 79.3327 68.0281 82.1333 66.4888 85.191C65.2107 87.7298 63.2847 90.0032 62.0842 91.2961C61.8755 91.1022 61.1755 90.4058 61.0194 89.2563C60.8852 88.2675 61.2301 87.5099 61.3704 87.2384L67.3664 73.9307L68.9077 77.4042Z" fill="#FF7769"/>
<path d="M43.8662 35.0068C42.9111 35.9951 42.0208 36.5543 41.3677 36.8859C39.5968 37.7849 38.532 39.1538 38.1085 41.1344C37.7651 42.739 37.8911 44.4324 38.4233 45.9819C38.6937 46.7687 39.0692 47.5202 39.5427 48.2049C40.0044 48.8733 40.4784 49.3988 40.2427 50.2866C39.9269 51.4779 38.3207 51.8534 37.509 52.6432C36.5064 53.6187 35.9717 55.0351 35.9207 56.4188C35.8896 57.2637 36.0238 58.1341 36.4488 58.8652C36.9753 59.7713 37.8728 60.3504 38.7564 60.8657C39.707 61.4198 40.6299 62.0224 41.6054 62.5316" stroke="#262626" stroke-width="0.211583" stroke-miterlimit="10" stroke-linecap="round" stroke-linejoin="round"/>
<path d="M59.6576 35.7515C60.5832 36.6851 61.5617 37.728 61.6898 39.0362C61.7424 39.5714 61.6444 40.1102 61.5056 40.6301C61.252 41.5775 60.8607 42.4842 60.6214 43.4352C60.4362 44.1704 60.3444 44.9485 60.523 45.6852C60.6847 46.3531 61.0607 46.9511 61.4959 47.4827C62.7342 48.997 64.1577 50.047 64.4459 52.1098C64.6031 53.2327 64.4725 54.3766 64.2694 55.4919C64.1434 56.1848 63.9781 56.8971 63.55 57.4562C62.7618 58.4869 61.2765 58.8399 60.0694 59.0848" stroke="#262626" stroke-width="0.211583" stroke-miterlimit="10" stroke-linecap="round" stroke-linejoin="round"/>
<path d="M50.5576 33.4978C49.5958 33.4922 48.7586 33.5197 48.4494 33.5483C44.4432 33.9167 40.6947 36.1703 39.5115 40.1739C38.9692 42.0091 39.0692 43.5627 39.2447 44.4219C39.6978 46.6392 41.1886 47.4734 40.8085 49.0928C40.7309 49.4229 40.6309 49.5627 39.8687 50.6612C38.1299 53.1668 37.2585 54.424 37.1779 54.6388C36.4212 56.6577 37.2008 59.0955 38.387 60.5516C39.1304 61.4644 40.183 62.2537 41.6136 62.7501C44.1111 63.6169 51.6826 66.6379 58.5872 62.5159C60.2969 61.4955 63.1061 59.8184 63.8521 56.6664C64.7709 52.7832 62.0163 48.9525 61.5903 48.3602C60.5765 46.9505 60.3546 47.2821 59.7964 46.2933C58.6326 44.2326 59.2689 41.9979 59.8663 39.8749C60.4474 37.8101 60.2301 36.6779 59.8622 36.0361C58.901 34.359 56.3035 33.9978 54.2101 33.7065C52.7943 33.5106 51.1545 33.5014 50.5576 33.4978Z" fill="#262626"/>
<path d="M52.4678 54.3628C57.5683 56.1745 60.577 58.9149 62.0781 60.5276C64.7082 63.3537 66.3179 66.5935 67.5179 69.0093C68.3098 70.6027 68.8837 71.9828 69.2725 72.9869L60.8699 91.2958L52.4678 54.3628Z" fill="#FDB6D6"/>
<path d="M45.3238 54.2622H52.4673C52.4673 54.2622 61.9628 61.2291 64.0378 67.3123C66.1133 73.396 58.5913 100.545 58.5913 100.545C53.452 100.68 47.454 100.473 40.8284 99.5509C31.7079 98.2809 23.9823 96.0156 17.9134 93.7523C19.2354 87.5232 20.6226 82.2951 21.7742 78.3093C25.0191 67.0781 27.0007 63.597 29.8467 60.7607C32.4865 58.1306 35.1181 56.8041 35.9207 56.4189C39.7621 54.5734 43.2927 54.278 45.3238 54.2622Z" fill="#FDB6D6"/>
<path d="M58.5877 62.5161C58.5877 62.5161 58.924 76.9331 57.5979 82.1586C56.2719 87.3842 52.8862 100.546 52.8862 100.546H58.5923C58.5923 100.546 61.6924 88.9051 61.9266 85.9801C62.1607 83.0556 62.4806 78.0249 62.0868 75.8606C61.6929 73.6963 60.8867 69.0988 60.3541 67.2151C59.8204 65.3314 58.5877 62.5161 58.5877 62.5161Z" fill="#FF97CB"/>
<path d="M34.0584 80.3377C33.2574 80.7954 30.5579 82.4709 29.4028 85.8633C27.5864 91.199 31.511 97.6195 31.735 97.8853L19.5757 94.8715C19.5757 94.8715 19.8874 86.2143 20.8624 83.0163C21.8374 79.8183 26.5563 74.6836 26.5563 74.6836L34.0584 80.3377Z" fill="#FF97CB"/>
<path d="M48.9106 57.8215C46.9371 57.8291 45.3315 56.2352 45.3243 54.2623L45.2952 46.5734L52.4412 46.5464L52.4703 54.2352C52.4774 56.2082 50.8835 57.8138 48.9106 57.8215Z" fill="#F7A99C"/>
<path d="M52.4616 52.0827L47.808 49.6919C47.855 50.095 48.1198 51.9822 49.7795 53.2858C50.8392 54.118 51.9535 54.3083 52.4678 54.3623L52.4616 52.0827Z" fill="#FF7769"/>
<path d="M45.1213 44.1916C45.0988 44.0753 44.7927 43.8998 44.6983 43.8401C44.5396 43.7386 44.3677 43.6574 44.1881 43.5998C43.8396 43.4875 43.4564 43.4615 43.0983 43.5437C42.386 43.7069 41.7544 44.3054 41.6355 45.0386C41.5666 45.4646 41.6651 45.9049 41.8478 46.2957C42.1222 46.8835 42.5876 47.3774 43.1493 47.7014C43.6151 47.9697 44.1452 48.1213 44.6809 48.1534C44.7881 48.16 45.8866 48.1345 45.8784 48.0922C45.6264 46.7917 45.3738 45.4916 45.1213 44.1916Z" fill="#F7A99C"/>
<path d="M44.1422 44.2663C44.2269 44.8402 44.7309 47.8658 47.4585 50.0035C47.9611 50.3974 51.3009 53.0153 54.3571 51.7377C58.2841 50.0959 57.8556 43.6458 57.828 43.2963C57.7346 42.1152 57.4586 38.6371 54.5785 36.7815C52.2274 35.2672 49.6805 35.8238 49.3193 35.909C48.9386 35.9983 46.5136 36.6106 45.0294 38.9881C43.682 41.1458 44.0034 43.3275 44.1422 44.2663Z" fill="#F7A99C"/>
<path d="M55.5989 43.3006C55.6622 43.8042 56.0504 44.17 56.4663 44.118C56.8821 44.0659 57.1678 43.6154 57.1045 43.1118C57.0413 42.6083 56.653 42.2424 56.2372 42.2945C55.8214 42.3465 55.5356 42.797 55.5989 43.3006Z" fill="#262626"/>
<path d="M51.0611 43.8704C51.1244 44.374 51.5126 44.7398 51.9284 44.6878C52.3443 44.6357 52.63 44.1852 52.5667 43.6817C52.5035 43.1781 52.1152 42.8123 51.6994 42.8643C51.2835 42.9163 50.9978 43.3669 51.0611 43.8704Z" fill="#262626"/>
<path d="M54.229 44.0542L54.9249 44.994C55.053 45.167 55.005 45.4119 54.8213 45.5236L54.1826 45.9124" stroke="#262626" stroke-width="0.373983" stroke-miterlimit="10" stroke-linecap="round" stroke-linejoin="round"/>
<path d="M49.5391 46.2423C49.6101 46.8071 50.1259 47.2081 50.6907 47.1367C51.2555 47.0653 51.6565 46.5499 51.5851 45.9851C51.5142 45.4203 50.9983 45.0193 50.4335 45.0908C49.8687 45.1617 49.4682 45.677 49.5391 46.2423Z" fill="#FF7769"/>
<path d="M44.6422 46.775C44.6458 46.6617 44.6554 45.8944 44.0396 45.3408C43.5575 44.9071 42.9962 44.8785 42.8432 44.876" stroke="#262626" stroke-width="0.373983" stroke-miterlimit="10" stroke-linecap="round" stroke-linejoin="round"/>
<path d="M44.0993 45.4927C44.0651 45.4876 43.6524 45.43 43.3641 45.7422C43.1269 45.9989 43.1488 46.3162 43.1534 46.3688" stroke="#262626" stroke-width="0.373983" stroke-miterlimit="10" stroke-linecap="round" stroke-linejoin="round"/>
<path d="M44.0519 43.5615C44.0519 43.5615 44.5595 43.6064 44.9422 43.9865C45.3248 44.3661 45.4606 45.0166 45.4606 45.0166C46.4386 44.8978 48.6789 44.485 50.7111 42.7212C51.8126 41.7651 52.4851 40.7314 52.8815 39.986C53.2519 40.3191 53.8841 40.8197 54.7785 41.2054C55.9453 41.7085 57.403 41.9493 57.5964 41.5574C57.6321 41.485 57.5928 41.2748 57.5132 40.8549C57.4846 40.7028 57.4545 40.4778 57.3805 40.2625C57.2362 39.8411 57.0484 39.4344 56.8244 39.0492C56.3754 38.2788 55.778 37.5946 55.0749 37.0462C54.6183 36.69 54.1162 36.3911 53.5826 36.164C51.8887 35.4436 49.5366 35.4431 47.5121 36.5227C47.5121 36.5227 45.2519 37.7283 44.2554 40.0875C43.9131 40.8982 43.8269 41.709 43.8054 41.9901C43.7626 42.5467 43.8253 42.9105 43.91 43.1901C43.958 43.3483 44.0116 43.4748 44.0519 43.5615Z" fill="#262626"/>
<path d="M57.2928 44.6117C57.4882 44.5872 57.6765 44.6224 57.8438 44.6979C57.8239 45.2515 57.7708 45.923 57.6489 46.6352C57.6157 46.6429 57.5841 46.6536 57.5499 46.6582C56.9851 46.7291 56.4693 46.3286 56.3984 45.7638C56.327 45.198 56.7275 44.6826 57.2928 44.6117Z" fill="#FF7769"/>
<path d="M54.5892 47.3081L52.7167 48.0724" stroke="#262626" stroke-width="0.373983" stroke-miterlimit="10" stroke-linecap="round" stroke-linejoin="round"/>
<path d="M58.8433 103.37L28.4023 111.466C26.092 112.08 24.717 114.451 25.3313 116.762C25.9456 119.072 28.3171 120.447 30.6273 119.832L60.774 111.815L58.8433 103.37Z" fill="#335CFF"/>
<path d="M25.3319 115.741C24.7176 113.43 26.0921 111.059 28.4023 110.445L88.1079 94.5654L90.3329 102.932L30.6273 118.812C28.3171 119.426 25.9461 118.051 25.3319 115.741Z" fill="#D9245B"/>
<path d="M42.5279 110.388L39.5008 108.178H40.9718C41.8927 108.178 42.5468 107.281 42.2651 106.404C42.1978 106.194 42.0019 106.052 41.781 106.048C40.8417 106.032 40.057 105.989 39.4758 105.948C38.0937 105.851 37.3901 105.799 36.7901 105.585C35.8054 105.234 35.6717 104.883 34.6646 104.532C34.0549 104.319 33.4952 104.236 33.037 104.208C32.7421 103.955 32.4559 103.698 32.1758 103.438L28.3793 110.406C28.6314 110.491 28.8849 110.576 29.1421 110.665C29.2829 111.207 29.511 111.815 29.888 112.429C30.4727 113.38 31.1278 113.882 32.3646 114.827C32.6105 115.016 32.4217 114.86 35.4814 116.54C35.7676 116.697 36.3069 116.993 36.6932 116.777C37.0141 116.598 37.1319 116.118 37.1416 116.075C37.1942 115.85 37.1738 115.657 37.1513 115.539C37.2217 115.597 37.3294 115.675 37.4728 115.742C37.86 115.922 38.5743 116.049 39.0039 115.627C39.383 115.254 39.3161 114.672 39.3008 114.536C39.2738 114.297 39.1942 114.11 39.1309 113.989L39.6748 114.206C40.0626 114.362 40.5039 114.3 40.835 114.046C41.457 113.567 41.4493 112.627 40.8192 112.159L40.632 112.02L41.6743 112.259C42.0733 112.351 42.4891 112.203 42.7396 111.879C43.1014 111.411 43.006 110.737 42.5279 110.388Z" fill="#D9245B"/>
<path d="M34.5263 59.0845C21.1609 64.8075 12.0526 75.4254 12.0644 86.2653C12.0715 92.9868 15.5848 98.9578 16.744 100.928C21.2282 108.55 30.087 109.487 33.2635 111.25L36.8789 106.076C29.0548 101.075 24.2456 94.0888 25.6349 85.3296C27.4094 74.1438 37.334 69.1009 38.2824 68.6391L34.5263 59.0845Z" fill="#F7A99C"/>
<path d="M19.8486 69.002L29.7635 75.7688L27.9671 78.524C26.4324 78.0495 24.2859 77.1979 22.0323 75.627C20.0221 74.226 18.593 72.7173 17.641 71.5443C18.3772 70.6964 19.1129 69.8494 19.8486 69.002Z" fill="#FF7769"/>
<path d="M17.9139 68.1702L34.0584 80.3372C37.9728 72.2932 41.0095 66.3993 43.1835 62.2814C44.131 60.4865 46.5427 55.9462 45.1136 54.5018C44.7478 54.1319 43.6412 54.0604 41.4284 53.9165C39.6687 53.8028 38.6238 53.7405 37.2166 53.9165C37.2166 53.9165 35.5508 54.1252 33.7462 54.7548C31.0181 55.7074 24.8334 60.4788 17.9139 68.1702Z" fill="#FDB6D6"/>
<path d="M46.9295 171.729V184.144H66.8352L66.3148 180.572C66.3148 180.572 60.0729 177.07 59.1015 176.272C58.1306 175.475 57.0903 173.914 56.8821 173.429C56.6739 172.944 56.8821 171.729 56.8821 171.729H46.9295Z" fill="#F7A99C"/>
<path d="M45.9239 176.411C46.1667 176.343 46.5336 176.281 46.9295 176.393C47.9473 176.683 48.2147 177.862 48.655 178.491L60.073 178.621C60.049 178.043 60.025 177.464 60.0015 176.885C60.5959 176.692 61.1898 176.499 61.7842 176.307C63.0291 177.695 64.2398 178.502 65.1551 178.989C66.5603 179.737 68.3822 180.329 69.1241 181.595C69.4837 182.209 69.5021 182.834 69.5042 182.949C69.5098 183.271 69.5174 183.722 69.1934 184.023C68.9526 184.246 68.6439 184.278 68.5001 184.283C61.1306 184.236 53.7617 184.19 46.3922 184.144C46.1336 184.144 45.9239 183.934 45.9239 183.676V176.411Z" fill="#021258"/>
<path d="M68.5251 185.566H46.8024C46.3172 185.566 45.9244 185.173 45.9244 184.688V183.714H69.4031V184.688C69.4031 185.173 69.0098 185.566 68.5251 185.566Z" fill="#5D1113"/>
<path d="M46.9295 171.729H56.8826L56.7954 172.969H46.9295V171.729Z" fill="#FF7769"/>
<path d="M11.7975 161.139L5.37096 171.761L22.4017 182.065L23.8058 178.739C23.8058 178.739 20.2782 172.511 19.8604 171.326C19.4425 170.141 19.3604 168.267 19.4333 167.744C19.5068 167.221 20.3129 166.29 20.3129 166.29L11.7975 161.139Z" fill="#F7A99C"/>
<path d="M8.51331 164.623C8.75617 164.691 9.1026 164.828 9.3827 165.129C10.1041 165.903 9.7225 167.051 9.7725 167.817L19.4741 173.839C19.7532 173.331 20.0323 172.824 20.3119 172.316C20.92 172.459 21.5282 172.602 22.1364 172.745C22.4828 174.577 23.1017 175.894 23.6318 176.784C24.4466 178.152 25.6992 179.601 25.6782 181.069C25.668 181.781 25.3604 182.325 25.3027 182.424C25.141 182.702 24.914 183.093 24.4813 183.182C24.1594 183.248 23.8792 183.116 23.7532 183.046C17.4721 179.191 11.1914 175.337 4.91021 171.483C4.68878 171.349 4.61837 171.061 4.75205 170.84L8.51331 164.623Z" fill="#021258"/>
<path d="M23.1109 184.156L4.52553 172.911C4.11073 172.66 3.97757 172.12 4.22859 171.705L4.73267 170.871L24.8211 183.025L24.317 183.859C24.066 184.274 23.5262 184.407 23.1109 184.156Z" fill="#5D1113"/>
<path d="M11.7975 161.139L20.3129 166.291L19.5966 167.307L11.1552 162.199L11.7975 161.139Z" fill="#FF7769"/>
<path d="M41.6141 62.75C41.4126 65.0408 40.8595 68.3771 39.2697 72.0975C37.6575 75.87 35.5921 78.6032 34.059 80.3379C28.6773 76.2823 23.2956 72.2266 17.9144 68.171" stroke="#262626" stroke-width="0.211583" stroke-miterlimit="10" stroke-linecap="round" stroke-linejoin="round"/>
<path d="M58.5336 62.0361C59.3581 64.0066 60.125 66.2127 60.7403 68.6464C62.9832 77.5194 62.1867 85.3669 61.0934 90.6563" stroke="#262626" stroke-width="0.211583" stroke-miterlimit="10" stroke-linecap="round" stroke-linejoin="round"/>
<path d="M36.8789 55.9893C36.8789 55.9893 32.9125 56.2648 30.2217 58.4291C27.5308 60.5934 23.8456 64.3373 23.8456 64.3373" stroke="white" stroke-width="0.211583" stroke-miterlimit="10" stroke-linecap="round" stroke-linejoin="round"/>
<path d="M29.1395 76.6309C27.6487 78.7814 26.839 80.7814 26.3854 82.1865C25.6742 84.3921 25.5094 86.1631 25.4655 86.7141C25.3548 88.1065 25.1961 90.106 25.8808 92.4024C26.1676 93.3652 26.8732 95.2866 26.8732 95.2866" stroke="#262626" stroke-width="0.211583" stroke-miterlimit="10" stroke-linecap="round" stroke-linejoin="round"/>
<path d="M28.9033 108.376C28.9507 109.079 29.1298 110.251 29.8584 111.437C30.4431 112.389 31.0982 112.89 32.335 113.836C32.5814 114.024 32.3921 113.868 35.4518 115.548C35.738 115.705 36.2773 116.002 36.6636 115.786C36.9845 115.606 37.1023 115.127 37.112 115.084C37.1646 114.859 37.1442 114.666 37.1217 114.548C37.1921 114.606 37.2998 114.684 37.4432 114.751C37.8304 114.931 38.5452 115.057 38.9743 114.635C39.3534 114.262 39.2871 113.68 39.2712 113.545C39.2437 113.306 39.1646 113.118 39.1008 112.998L39.6447 113.215C40.033 113.37 40.4738 113.309 40.8054 113.054C41.4274 112.576 41.4197 111.635 40.7896 111.167L40.6024 111.028L41.6447 111.268C42.0437 111.36 42.459 111.211 42.7095 110.888C43.0718 110.42 42.9764 109.746 42.4988 109.397L39.4717 107.187H40.9432C41.8641 107.187 42.5182 106.29 42.2366 105.413C42.1692 105.203 41.9733 105.061 41.7524 105.057C40.8126 105.041 40.0284 104.998 39.4473 104.957C38.0651 104.86 37.3615 104.808 36.7615 104.594C35.7768 104.243 35.6431 103.892 34.6365 103.541C33.789 103.245 33.0304 103.196 32.5191 103.202L28.9033 108.376Z" fill="#F7A99C"/>
<path d="M37.1217 114.547C36.61 113.953 35.9549 113.282 35.1355 112.615C34.4386 112.048 33.7661 111.601 33.1661 111.25" stroke="#262626" stroke-width="0.211583" stroke-miterlimit="10" stroke-linecap="round" stroke-linejoin="round"/>
<path d="M39.1008 112.997C38.5916 112.395 37.9401 111.715 37.1243 111.036C36.2217 110.285 35.3513 109.729 34.609 109.32" stroke="#262626" stroke-width="0.211583" stroke-miterlimit="10" stroke-linecap="round" stroke-linejoin="round"/>
<path d="M40.6024 111.028C39.9488 110.378 39.111 109.652 38.0677 108.961C37.3845 108.508 36.7289 108.147 36.1299 107.857" stroke="#262626" stroke-width="0.211583" stroke-miterlimit="10" stroke-linecap="round" stroke-linejoin="round"/>
<path d="M34.609 152.57L46.9509 130.138C48.0223 128.191 48.5382 125.986 48.4412 123.766L48.0244 114.185" stroke="#262626" stroke-width="0.211583" stroke-miterlimit="10" stroke-linecap="round" stroke-linejoin="round"/>
<path d="M79.2915 108.196C78.6149 108.587 77.7496 108.354 77.3588 107.678L75.2169 103.968C74.8261 103.291 75.0583 102.426 75.7348 102.035C76.4113 101.644 77.2767 101.876 77.6675 102.553L79.8098 106.263C80.1996 106.94 79.968 107.805 79.2915 108.196Z" fill="#F7A99C"/>
<path d="M81.4696 107.484C80.793 107.874 79.9277 107.642 79.5369 106.966L76.9073 102.411C76.5165 101.735 76.7486 100.869 77.4251 100.478C78.1017 100.088 78.967 100.32 79.3578 100.996L81.9874 105.551C82.3782 106.227 82.1461 107.093 81.4696 107.484Z" fill="#F7A99C"/>
<path d="M83.6114 106.298C82.9349 106.689 82.0695 106.457 81.6787 105.78L78.92 101.002C78.5292 100.325 78.7614 99.46 79.4379 99.0692C80.1144 98.6784 80.9797 98.9105 81.3706 99.5871L84.1293 104.365C84.5201 105.042 84.2879 105.908 83.6114 106.298Z" fill="#F7A99C"/>
<path d="M84.9844 105.532C84.2456 105.787 83.4405 105.395 83.1859 104.656L81.3885 99.4396C81.1339 98.7008 81.5262 97.8957 82.265 97.6411C83.0038 97.3865 83.8089 97.7788 84.0635 98.5176L85.8609 103.734C86.1155 104.473 85.7232 105.278 84.9844 105.532Z" fill="#F7A99C"/>
<path d="M77.2716 100.583C76.9471 100.92 76.8323 101.226 76.7843 101.408C76.5532 102.278 77.2359 103.317 78.6109 105.361C78.9236 105.826 79.3874 106.489 79.3874 106.489V106.488" stroke="#262626" stroke-width="0.211583" stroke-miterlimit="10" stroke-linecap="round" stroke-linejoin="round"/>
<path d="M79.4379 99.0693C79.2083 99.2923 78.9415 99.627 78.8461 100.078C78.7221 100.664 78.966 101.083 80.3017 103.395C80.7435 104.16 81.3629 105.233 81.3629 105.233" stroke="#262626" stroke-width="0.211583" stroke-miterlimit="10" stroke-linecap="round" stroke-linejoin="round"/>
<path d="M81.8752 97.9155C81.7247 98.0579 81.4992 98.3145 81.4236 98.6819C81.3502 99.037 81.4502 99.3319 81.4935 99.461C81.7221 100.139 82.2338 101.684 82.9405 103.734" stroke="#262626" stroke-width="0.211583" stroke-miterlimit="10" stroke-linecap="round" stroke-linejoin="round"/>
<path opacity="0.5" d="M127.693 114.919C142.905 108.87 150.333 91.6344 144.284 76.4226C138.235 61.2108 120.999 53.7829 105.787 59.8319C90.5756 65.881 83.1477 83.1163 89.1967 98.3281C95.2457 113.54 112.481 120.968 127.693 114.919Z" fill="#CDEBF5"/>
<path d="M116.742 54.2651C98.4518 54.2651 83.6247 69.0923 83.6247 87.3828C83.6247 105.673 98.4518 120.5 116.742 120.5C135.033 120.5 149.86 105.673 149.86 87.3828C149.86 69.0923 135.033 54.2651 116.742 54.2651ZM116.742 115.123C101.422 115.123 89.0023 102.703 89.0023 87.3828C89.0023 72.0622 101.422 59.6427 116.742 59.6427C132.063 59.6427 144.482 72.0622 144.482 87.3828C144.482 102.703 132.063 115.123 116.742 115.123Z" fill="#D9245B"/>
<path d="M122.599 106.948C122.249 106.636 122.017 106.19 121.987 105.684C121.924 104.666 122.699 103.79 123.717 103.728C125.567 103.615 127.395 103.099 129.004 102.236C130.801 101.272 131.974 100.079 132.513 99.4534C133.153 98.711 134.484 97.1671 134.968 94.8778C135.641 91.6895 134.237 88.9385 133.603 87.9033C133.069 87.0339 133.342 85.8966 134.211 85.3634C135.081 84.8303 136.219 85.1032 136.751 85.9721C137.827 87.7262 139.496 91.315 138.582 95.6416C137.902 98.8595 136.086 100.966 135.311 101.865C134.448 102.866 132.956 104.308 130.75 105.492C128.675 106.604 126.321 107.27 123.943 107.415C123.43 107.446 122.954 107.265 122.599 106.948Z" fill="white"/>
<path d="M99.0126 62.582C101.084 61.0376 107.888 56.3687 117.731 56.4983C127.251 56.6238 133.774 61.1605 135.864 62.7498" stroke="#262626" stroke-width="0.211583" stroke-miterlimit="10" stroke-linecap="round" stroke-linejoin="round"/>
<path d="M66.4439 20.1876C66.7577 18.559 67.1347 17.2717 67.5745 16.3263C68.0143 15.3804 68.673 14.563 69.5501 13.8732C70.0598 13.4564 70.6113 13.1192 71.2052 12.861C71.798 12.6033 72.3542 12.3171 72.8736 12.0018C73.3914 11.687 73.8506 11.31 74.2506 10.8717C74.6501 10.4334 74.9272 9.81453 75.0812 9.01351C75.342 7.66145 75.1516 6.6441 74.5098 5.96195C73.868 5.28031 73.0363 4.84051 72.0159 4.64408C70.5526 4.36194 69.4664 4.57572 68.7582 5.28287C68.0485 5.99103 67.4924 7.02165 67.0883 8.37473L61.7475 7.34513C62.0082 5.99307 62.4653 4.80684 63.1199 3.78795C63.774 2.76958 64.5832 1.95171 65.5465 1.33589C66.5092 0.72007 67.6036 0.315475 68.8291 0.122107C70.0536 -0.0712624 71.3567 -0.0350373 72.7373 0.231291C75.718 0.805786 77.9537 1.86702 79.445 3.41346C80.9354 4.96092 81.418 7.10023 80.8915 9.8329C80.7211 10.7166 80.4823 11.4717 80.1757 12.0998C79.868 12.7273 79.4833 13.2758 79.0211 13.7452C78.5583 14.2141 78.0195 14.6329 77.4047 15.0008C76.7894 15.3692 76.1032 15.7375 75.345 16.1069C74.6471 16.4595 74.0736 16.7998 73.6236 17.1279C73.1736 17.4564 72.8093 17.8228 72.5317 18.2268C72.2531 18.6314 72.0399 19.0702 71.8919 19.5422C71.7435 20.0146 71.6108 20.5549 71.494 21.1616L66.4439 20.1876ZM64.7383 28.1463L65.7837 22.7228L71.373 23.7999L70.3276 29.2234L64.7383 28.1463Z" fill="#D9245B"/>
<path d="M21.3119 37.7029C21.1471 36.3891 21.1145 35.3187 21.2139 34.4921C21.3134 33.6656 21.6109 32.8819 22.1063 32.1411C22.39 31.6982 22.7252 31.3059 23.1119 30.963C23.4981 30.6207 23.8497 30.2656 24.1655 29.8977C24.4808 29.5304 24.7359 29.1303 24.9308 28.6987C25.1252 28.2671 25.1823 27.7288 25.1012 27.0829C24.9645 25.9921 24.5681 25.267 23.9119 24.9084C23.2563 24.5497 22.516 24.4221 21.6925 24.5257C20.5119 24.6742 19.7405 25.1048 19.3782 25.8171C19.0149 26.5303 18.8481 27.4502 18.8767 28.5773L14.5685 29.1186C14.4312 28.0278 14.4848 27.0145 14.7292 26.0788C14.9736 25.1436 15.3848 24.3227 15.9639 23.6165C16.5425 22.9109 17.2726 22.3328 18.1552 21.8823C19.0369 21.4323 20.0349 21.1374 21.1481 20.9976C23.5527 20.6956 25.5125 20.9471 27.0273 21.7522C28.5416 22.5573 29.4375 24.0619 29.7145 26.266C29.8038 26.9788 29.8099 27.6115 29.7324 28.164C29.6543 28.7166 29.4982 29.2283 29.2635 29.6987C29.0283 30.1691 28.7232 30.6207 28.3477 31.0523C27.9717 31.4844 27.5421 31.9339 27.0584 32.4018C26.616 32.8421 26.265 33.2426 26.0048 33.6028C25.7446 33.9636 25.5589 34.3319 25.4482 34.7074C25.3369 35.0835 25.2834 35.4692 25.288 35.8641C25.292 36.2595 25.3252 36.7024 25.3869 37.1916L21.3119 37.7029ZM21.9879 44.1657L21.4384 39.7901L25.9471 39.2238L26.4966 43.5993L21.9879 44.1657Z" fill="#D9245B"/>
</svg>
