<svg width="35" height="24" viewBox="0 0 35 24" fill="none" xmlns="http://www.w3.org/2000/svg">
<path d="M4.26486 3C4.26486 2.20435 4.58093 1.44129 5.14354 0.87868C5.70615 0.31607 6.46921 0 7.26486 0C8.06051 0 8.82357 0.31607 9.38618 0.87868C9.94879 1.44129 10.2649 2.20435 10.2649 3C10.2649 3.79565 9.94879 4.55871 9.38618 5.12132C8.82357 5.68393 8.06051 6 7.26486 6C6.46921 6 5.70615 5.68393 5.14354 5.12132C4.58093 4.55871 4.26486 3.79565 4.26486 3ZM3.83629 11.4482C3.30057 12.0482 2.97914 12.8464 2.97914 13.7143C2.97914 14.5821 3.30057 15.3804 3.83629 15.9804V11.4429V11.4482ZM11.572 8.80714C9.98093 10.2161 8.97914 12.2786 8.97914 14.5714C8.97914 16.4089 9.622 18.0964 10.6934 19.4196V20.5714C10.6934 21.5196 9.92736 22.2857 8.97914 22.2857H5.55057C4.60236 22.2857 3.83629 21.5196 3.83629 20.5714V19.1357C1.81129 18.1714 0.407715 16.1089 0.407715 13.7143C0.407715 10.3982 3.09164 7.71429 6.40771 7.71429H8.122C9.40771 7.71429 10.597 8.11607 11.572 8.80179V8.80714ZM24.4077 20.5714V19.4196C25.4791 18.0964 26.122 16.4089 26.122 14.5714C26.122 12.2786 25.1202 10.2161 23.5291 8.80179C24.5041 8.11607 25.6934 7.71429 26.9791 7.71429H28.6934C32.0095 7.71429 34.6934 10.3982 34.6934 13.7143C34.6934 16.1089 33.2899 18.1714 31.2649 19.1357V20.5714C31.2649 21.5196 30.4988 22.2857 29.5506 22.2857H26.122C25.1738 22.2857 24.4077 21.5196 24.4077 20.5714ZM24.8363 3C24.8363 2.20435 25.1524 1.44129 25.715 0.87868C26.2776 0.31607 27.0406 0 27.8363 0C28.6319 0 29.395 0.31607 29.9576 0.87868C30.5202 1.44129 30.8363 2.20435 30.8363 3C30.8363 3.79565 30.5202 4.55871 29.9576 5.12132C29.395 5.68393 28.6319 6 27.8363 6C27.0406 6 26.2776 5.68393 25.715 5.12132C25.1524 4.55871 24.8363 3.79565 24.8363 3ZM31.2649 11.4482V15.9857C31.8006 15.3804 32.122 14.5875 32.122 13.7196C32.122 12.8518 31.8006 12.0536 31.2649 11.4536V11.4482ZM17.5506 0C18.4599 0 19.332 0.361224 19.9749 1.00421C20.6179 1.64719 20.9791 2.51926 20.9791 3.42857C20.9791 4.33789 20.6179 5.20996 19.9749 5.85294C19.332 6.49592 18.4599 6.85714 17.5506 6.85714C16.6413 6.85714 15.7692 6.49592 15.1262 5.85294C14.4832 5.20996 14.122 4.33789 14.122 3.42857C14.122 2.51926 14.4832 1.64719 15.1262 1.00421C15.7692 0.361224 16.6413 0 17.5506 0ZM13.2649 14.5714C13.2649 15.4393 13.5863 16.2321 14.122 16.8375V12.3C13.5863 12.9054 13.2649 13.6982 13.2649 14.5661V14.5714ZM20.9791 12.3054V16.8429C21.5149 16.2375 21.8363 15.4446 21.8363 14.5768C21.8363 13.7089 21.5149 12.9107 20.9791 12.3107V12.3054ZM24.4077 14.5714C24.4077 16.9661 23.0041 19.0286 20.9791 19.9929V22.2857C20.9791 23.2339 20.2131 24 19.2649 24H15.8363C14.8881 24 14.122 23.2339 14.122 22.2857V19.9929C12.097 19.0286 10.6934 16.9661 10.6934 14.5714C10.6934 11.2554 13.3774 8.57143 16.6934 8.57143H18.4077C21.7238 8.57143 24.4077 11.2554 24.4077 14.5714Z" fill="#505050"/>
</svg>
