<svg width="28" height="29" viewBox="0 0 28 29" fill="none" xmlns="http://www.w3.org/2000/svg">
<path fill-rule="evenodd" clip-rule="evenodd" d="M13.4052 5.11523H3.22239C1.44202 5.11523 0 6.64426 0 8.52775V25.5871C0 27.4722 1.44202 28.9996 3.22239 28.9996H20.9456C22.7259 28.9996 24.168 27.4722 24.168 25.5871V13.1003L17.8617 19.7771C17.311 20.366 16.5938 20.7729 15.8058 20.9436L11.4862 21.8588C8.66663 22.4549 6.18216 19.8238 6.74608 16.8399L7.60968 12.2657C7.76597 11.4408 8.14943 10.6819 8.71174 10.0874L13.4052 5.11523Z" fill="#5D5D5D"/>
<path fill-rule="evenodd" clip-rule="evenodd" d="M27.1422 2.12201C26.9793 1.7096 26.7405 1.3314 26.4381 1.00707C26.1408 0.689867 25.7824 0.436114 25.3844 0.261082C24.9923 0.0889033 24.5688 0 24.1406 0C23.7123 0 23.2888 0.0889033 22.8967 0.261082C22.4987 0.436114 22.1403 0.689867 21.843 1.00707L20.9633 1.93834L25.5584 6.80415L26.4381 5.87127C26.7437 5.54939 26.9829 5.17055 27.1422 4.75632C27.4741 3.90958 27.4741 2.96875 27.1422 2.12201ZM23.2818 9.21611L18.685 4.34869L10.9884 12.5013C10.8748 12.6223 10.7982 12.7733 10.7676 12.9364L9.90402 17.5122C9.79124 18.1083 10.2891 18.6336 10.8514 18.5143L15.1726 17.6008C15.3299 17.5657 15.473 17.4844 15.5835 17.3672L23.2818 9.21611Z" fill="#5D5D5D"/>
</svg>
