<svg width="38" height="22" viewBox="0 0 38 22" fill="none" xmlns="http://www.w3.org/2000/svg">
<path d="M25.6501 0H20.7305C20.2723 0 19.8313 0.171813 19.4934 0.481076L13.8637 5.63546C13.858 5.64118 13.8522 5.65264 13.8465 5.65836C12.8958 6.55179 12.913 7.97784 13.7263 8.86553C14.4536 9.6616 15.9827 9.8735 16.9391 9.02017C16.9449 9.01444 16.9563 9.01444 16.9621 9.00871L21.538 4.81648C21.9103 4.47858 22.4944 4.50149 22.8323 4.87375C23.176 5.24601 23.1473 5.82445 22.7751 6.16808L21.2803 7.53685L29.6189 14.3063C29.785 14.4437 29.9339 14.5926 30.0714 14.7473V3.66534L26.9444 0.538346C26.6065 0.194721 26.1369 0 25.6501 0ZM31.9098 3.67679V16.4997C31.9098 17.5134 32.7287 18.3324 33.7424 18.3324H37.4078V3.67679H31.9098ZM34.6588 16.4997C34.1548 16.4997 33.7424 16.0874 33.7424 15.5834C33.7424 15.0794 34.1548 14.6671 34.6588 14.6671C35.1628 14.6671 35.5751 15.0794 35.5751 15.5834C35.5751 16.0874 35.1628 16.4997 34.6588 16.4997ZM0.754395 18.3267H4.41973C5.43343 18.3267 6.2524 17.5077 6.2524 16.494V3.67679H0.754395V18.3267ZM3.5034 14.6671C4.00738 14.6671 4.41973 15.0794 4.41973 15.5834C4.41973 16.0874 4.00738 16.4997 3.5034 16.4997C2.99941 16.4997 2.58706 16.0874 2.58706 15.5834C2.58706 15.0737 2.99941 14.6671 3.5034 14.6671ZM28.4678 15.7323L19.9172 8.79108L18.1991 10.366C16.4982 11.9181 13.8923 11.7692 12.3747 10.114C10.8341 8.43028 10.9543 5.82445 12.6267 4.28959L17.3114 0H12.5121C12.0253 0 11.5614 0.194721 11.2178 0.538346L8.08507 3.66534V16.4883H9.13313L14.3161 21.1788C15.8854 22.4559 18.1934 22.2154 19.4705 20.6462L19.482 20.6347L20.5071 21.5224C21.4177 22.2669 22.7636 22.1237 23.5024 21.2131L25.3007 19.0025L25.61 19.2545C26.3946 19.8902 27.5514 19.7756 28.1872 18.9853L28.7312 18.3152C29.3727 17.5249 29.2524 16.3737 28.4678 15.7323Z" fill="#5D5D5D"/>
</svg>
