<svg width="21" height="30" viewBox="0 0 21 30" fill="none" xmlns="http://www.w3.org/2000/svg">
<path d="M10.8434 28.4332C10.5772 28.1224 10.2209 27.6989 9.8022 27.1831C8.85967 26.0217 7.60413 24.3961 6.34997 22.5373C5.09447 20.6764 3.84902 18.5946 2.91959 16.52C1.98604 14.4362 1.39497 12.4112 1.39497 10.65C1.39497 8.14413 2.39042 5.7409 4.16234 3.96898C5.93426 2.19706 8.33749 1.20161 10.8434 1.20161C13.3492 1.20161 15.7525 2.19706 17.5244 3.96898C19.2963 5.7409 20.2917 8.14413 20.2917 10.65C20.2917 12.4112 19.7007 14.4362 18.7671 16.52C17.8377 18.5946 16.5923 20.6764 15.3367 22.5373C14.0826 24.3961 12.827 26.0217 11.8845 27.1831C11.4658 27.6989 11.1095 28.1224 10.8434 28.4332Z" fill="#D9245B" stroke="#D9245B" stroke-width="1.40323"/>
<circle cx="10.7212" cy="11.169" r="5.60106" fill="#FBFBFB" stroke="#D9245B" stroke-width="1.40323"/>
</svg>
