<svg width="158" height="47" viewBox="0 0 158 47" fill="none" xmlns="http://www.w3.org/2000/svg">
<g clip-path="url(#clip0_352_1513)">
<path d="M19.4713 29.2794C24.8835 29.2794 29.2709 24.892 29.2709 19.4798C29.2709 14.0676 24.8835 9.68018 19.4713 9.68018C14.0591 9.68018 9.67163 14.0676 9.67163 19.4798C9.67163 24.892 14.0591 29.2794 19.4713 29.2794Z" fill="#021258"/>
<path d="M19.4675 13.7068L19.4907 21.3407L23.2784 23.8325" stroke="white" stroke-width="2.41002" stroke-linecap="round"/>
<path fill-rule="evenodd" clip-rule="evenodd" d="M38.9311 18.7907C39.0448 21.9977 38.3639 25.1759 36.9584 28.0453L32.969 24.6902C33.6699 22.8745 33.9999 20.9284 33.9305 18.9679C33.834 16.25 32.9736 13.6143 31.4478 11.3631C29.922 9.11185 27.7925 7.33628 25.3035 6.24003C22.8147 5.14376 20.0672 4.77123 17.3763 5.1651C14.6853 5.55897 12.1599 6.70335 10.0896 8.46693C8.01936 10.2305 6.48809 12.5419 5.67143 15.136C4.85478 17.7301 4.78584 20.5019 5.47251 23.1334C6.10836 25.5702 9.22653 30.4633 11.2567 32.6546L7.82946 36.1124C5.15053 33.8327 1.48155 27.6568 0.630878 24.3967C-0.293276 20.8552 -0.200491 17.1248 0.89859 13.6335C1.99767 10.1422 4.05855 7.03142 6.84482 4.65787C9.6311 2.28434 13.03 0.744198 16.6516 0.214095C20.2732 -0.316009 23.9709 0.185396 27.3205 1.6608C30.6702 3.1362 33.5362 5.52585 35.5897 8.55567C37.6435 11.5855 38.8013 15.1328 38.9311 18.7907Z" fill="#D9245B"/>
<path fill-rule="evenodd" clip-rule="evenodd" d="M19.5549 39.3314L30.4344 28.0059L34.1258 31.1102L19.6579 46.2337L10.9543 38.9171L14.5353 35.3043L19.5549 39.3314Z" fill="#02AEF1"/>
<path d="M76.1692 9.08074C76.1692 8.14658 76.5095 7.33907 77.1904 6.65823C77.8713 5.97739 78.6866 5.63696 79.6366 5.63696C80.6025 5.63696 81.4258 5.97739 82.1067 6.65823C82.7876 7.32322 83.128 8.13866 83.128 9.10451C83.128 10.0703 82.7876 10.8937 82.1067 11.5745C81.4417 12.2554 80.6262 12.5958 79.6605 12.5958C78.6946 12.5958 77.8713 12.2554 77.1904 11.5745C76.5095 10.8937 76.1692 10.0624 76.1692 9.08074Z" fill="#02AEF1"/>
<path d="M115.226 9.08074C115.226 8.14658 115.566 7.33907 116.247 6.65823C116.928 5.97739 117.743 5.63696 118.694 5.63696C119.659 5.63696 120.483 5.97739 121.163 6.65823C121.844 7.32322 122.185 8.13866 122.185 9.10451C122.185 10.0703 121.844 10.8937 121.163 11.5745C120.499 12.2554 119.683 12.5958 118.717 12.5958C117.751 12.5958 116.928 12.2554 116.247 11.5745C115.566 10.8937 115.226 10.0624 115.226 9.08074Z" fill="#02AEF1"/>
<path d="M55.144 15.8813L61.1291 28.8728L67.0905 15.8813H73.0993L61.0816 40.6053L49.1589 15.8813H55.144Z" fill="#021258"/>
<path d="M82.32 15.8813V39.014H76.9761V15.8813H82.32Z" fill="#021258"/>
<path d="M97.0036 33.979H110.755V39.014H86.4109L101.397 20.8689H89.5934V15.8813H111.966L97.0036 33.979Z" fill="#021258"/>
<path d="M121.377 15.8813V39.014H116.033V15.8813H121.377Z" fill="#021258"/>
<path d="M133.899 20.8687V39.0139H128.555V20.8687H126.275V15.8812H128.555V7.40234H133.899V15.8812H138.055V20.8687H133.899Z" fill="#021258"/>
<path d="M141.932 15.8812H147.276V17.9475C148.258 16.9183 149.129 16.2137 149.889 15.8337C150.665 15.4379 151.583 15.24 152.644 15.24C154.053 15.24 155.525 15.6991 157.061 16.6175L154.615 21.51C153.601 20.7817 152.612 20.4175 151.646 20.4175C148.733 20.4175 147.276 22.6184 147.276 27.0201V39.0139H141.932V15.8812Z" fill="#021258"/>
</g>
<defs>
<clipPath id="clip0_352_1513">
<rect width="157.079" height="46.3889" fill="white"/>
</clipPath>
</defs>
</svg>
