<svg width="400" height="366" viewBox="0 0 400 366" fill="none" xmlns="http://www.w3.org/2000/svg">
<path d="M176.013 281.814C133.209 274.022 81.0282 281.639 55.7519 248.921C28.0486 213.062 22.5171 157.283 49.2126 117.683C74.3064 80.4593 130.682 87.6478 174.32 73.0387C208.613 61.5579 239.947 34.2047 274.04 42.4145C309.506 50.9551 329.246 83.3846 345.177 114.182C361.841 146.399 378.404 182.321 364.555 217.407C350.6 252.762 313.689 276.221 276.158 289.042C242.626 300.496 209.967 287.995 176.013 281.814Z" fill="#EBEFFF"/>
<path d="M75.505 300.847H298.984" stroke="#002B58" stroke-width="1.58176" stroke-miterlimit="10"/>
<path d="M225.653 291.532C225.653 291.532 226.816 298.29 226.769 300.894H200.869C200.869 300.894 200.827 298.686 203.984 297.964C210.494 296.476 215.19 294.058 215.476 289.788L225.653 291.532Z" fill="#001052"/>
<path d="M244.765 290.152C244.765 290.152 244.161 294.988 244.161 300.894H260.296C260.296 300.894 262.454 300.881 262.174 298.847C261.784 296.011 255.6 295.34 253.275 291.532L244.765 290.152Z" fill="#001052"/>
<path d="M191.081 157.348C190.123 156.884 188.895 155.671 189.477 153.952C190.058 152.233 192.336 151.652 193.15 151.698C193.963 151.745 193.66 152.442 193.15 152.698C192.751 152.898 191.567 153.412 191.451 154.334C191.336 155.256 192.569 158.069 191.081 157.348Z" fill="#FFC7A4"/>
<path d="M189.748 153.892C189.934 153.52 191.05 152.218 191.05 152.218L201.28 146.266L201.745 147.01L191.654 153.334L189.748 153.892Z" fill="#082855"/>
<path d="M198.416 161.894C197.972 160.446 196.812 157.534 197.509 155.651C198.207 153.767 197.609 152.268 197.28 151.675C196.951 151.082 195.521 151.012 194.684 150.489C193.847 149.966 193.917 151.71 194.684 152.093C195.452 152.477 196.601 152.595 195.661 154.186C195.207 154.953 194.51 153.663 193.359 153.663C192.208 153.663 189.383 154.883 190.778 157.569C192.173 160.254 194.795 161.66 195.382 162.718C195.968 163.777 199.355 164.95 198.416 161.894Z" fill="#FFC7A4"/>
<path d="M190.918 158.906C190.605 158.527 189.22 156.441 189.965 155.209C190.709 153.977 192.824 152.721 193.778 153.047C194.731 153.372 192.894 154.326 192.243 155.255C191.592 156.185 191.658 157.645 191.9 158.58C192.142 159.515 191.417 159.51 190.918 158.906Z" fill="#FFC7A4"/>
<path d="M194.626 162.649C193.685 161.885 192.394 160.789 191.278 159.627C190.162 158.464 190.627 155.767 192.58 154.372C194.533 152.977 194.872 153.953 194.314 154.558C193.756 155.162 192.417 156.65 192.417 156.65C192.417 156.65 193.278 158.51 195.463 158.696C197.648 158.882 197.867 159.654 198.253 160.928C198.639 162.202 196.349 164.048 194.626 162.649Z" fill="#FFE2D2"/>
<path d="M247.834 223.89C247.834 223.89 246.346 219.286 251.507 219.286C256.669 219.286 257.506 219.333 260.296 219.333C263.086 219.333 262.992 221.844 262.992 223.89" fill="#2C2929"/>
<path d="M247.834 223.89C247.834 223.89 246.346 219.286 251.507 219.286C256.669 219.286 257.506 219.333 260.296 219.333C263.086 219.333 262.992 221.844 262.992 223.89" stroke="#002B58" stroke-width="0.790853" stroke-miterlimit="10"/>
<path d="M274.246 253.231H237.325C235.04 253.231 233.186 251.378 233.186 249.092V228.028C233.186 225.742 235.04 223.889 237.325 223.889H274.246C276.532 223.889 278.385 225.742 278.385 228.028V249.092C278.384 251.378 276.532 253.231 274.246 253.231Z" fill="#2C2929"/>
<path d="M194.405 165.23L193.15 163.021L198.381 160.208L199.753 162.417L194.405 165.23Z" fill="#EDF6F8"/>
<path d="M224.398 151.187C221.817 154.814 210.308 177.134 206.681 183.063C203.054 188.991 209.541 190.665 211.145 189.061C212.75 187.457 227.258 167.648 227.258 167.648L224.398 151.187Z" fill="#D9245B"/>
<path d="M199.916 161.649C199.916 161.649 210.797 180.691 211.843 182.574C212.889 184.457 212.052 190.839 208.495 189.636C204.938 188.433 201.554 181.563 200.648 179.924C199.741 178.284 193.66 165.021 193.66 165.021L199.916 161.649Z" fill="#D9245B"/>
<path d="M257.459 212.73C257.878 214.264 259.598 219.426 258.482 221.425C257.366 223.424 253.181 222.96 251.507 221.425C249.833 219.891 251.786 212.451 252.205 212.404C252.624 212.358 257.459 212.73 257.459 212.73Z" fill="#FFC7A4"/>
<path d="M258.483 210.823H251.508V213.427H258.483V210.823Z" fill="#EDF6F8"/>
<path d="M253.274 151.675C256.204 153.698 259.133 158.441 259.133 163.393C259.133 168.345 259.133 211.66 259.133 211.66H250.903L253.274 151.675Z" fill="#D9245B"/>
<path d="M224.398 151.187C232.07 147.56 245.741 145.816 253.274 151.675V201.058H225.653L224.398 151.187Z" fill="#02AEF1"/>
<path d="M225.653 201.058L214.075 289.547L225.653 291.532L239.185 214.217L242.254 291.532H253.274V201.058H225.653Z" fill="#001D8F"/>
<path d="M238.175 149.654L235.349 184.736L238.836 189.786L242.672 184.876L240.598 149.834L238.175 149.654Z" fill="#EDF6F8"/>
<path d="M240.161 142.328C235.488 142.328 231.861 141.491 231.164 136.679C230.466 131.866 229.629 126.401 231.164 124.007C232.698 121.613 236.046 120.17 240.161 121.031C244.277 121.892 249.299 123.217 249.229 129.913C249.159 136.609 248.601 142.328 240.161 142.328Z" fill="#FFC7A4"/>
<path d="M236.465 132.535C235.907 132.977 234.93 133.302 235 133.651C235.07 134 236.465 134.511 236.465 134.511" stroke="#2D2617" stroke-width="0.31633" stroke-miterlimit="10" stroke-linecap="round"/>
<path d="M233.862 129.913C233.862 129.451 233.726 129.076 233.559 129.076C233.391 129.076 233.255 129.451 233.255 129.913C233.255 130.375 233.391 130.75 233.559 130.75C233.726 130.75 233.862 130.375 233.862 129.913Z" fill="#02AEF1"/>
<path d="M243.28 129.913C243.28 129.451 243.144 129.076 242.976 129.076C242.808 129.076 242.673 129.451 242.673 129.913C242.673 130.375 242.809 130.75 242.976 130.75C243.144 130.75 243.28 130.375 243.28 129.913Z" fill="#02AEF1"/>
<path d="M247.359 129.285C247.091 127.974 246.683 126.914 244.835 126.844C242.986 126.774 233.675 127.786 229.629 124.298C225.584 120.81 229.795 113.451 233.862 112.568C237.929 111.685 242.486 112.94 245.044 116.381C245.044 116.381 248.206 115.777 249.833 118.52C251.461 121.264 250.763 127.96 250.438 130.75C250.113 133.54 249.004 137.936 247.722 139.761C247.722 139.761 247.955 132.191 247.359 129.285Z" fill="#2D2617"/>
<path d="M232.465 129.299C232.166 128.289 230.048 127.857 229.117 129.136C228.187 130.415 228.809 134.135 230.791 134.832C232.774 135.529 232.907 130.786 232.465 129.299Z" fill="#FFC7A4"/>
<path d="M247.448 129.229C247.748 128.22 249.866 127.788 250.796 129.067C251.726 130.345 251.104 134.066 249.122 134.763C247.14 135.46 247.006 130.718 247.448 129.229Z" fill="#FFC7A4"/>
<path d="M235.651 143.445L235.511 145.304L237.275 148.559C237.275 148.559 242.957 147.443 243.28 147.304C243.602 147.164 244.486 145.304 244.486 145.304V143.026L235.651 143.445Z" fill="#FFC7A4"/>
<path d="M239.011 134.889C235.244 134.889 235.063 134.865 230.824 134.296C230.824 134.296 230.909 139.585 231.978 142.328C233.047 145.072 237.182 145.304 239.765 145.304C242.347 145.304 245.788 144.793 247.044 142.328C248.299 139.864 248.392 130.052 248.392 128.704C248.392 127.355 246.928 127.622 247.234 128.746C247.467 129.6 247.555 132.517 246.067 133.54C244.579 134.563 241.568 134.889 239.011 134.889Z" fill="#2D2617"/>
<path d="M235.511 145.304L239.511 147.351V150.28L235.041 148.187L235.511 145.304Z" fill="#EDF6F8"/>
<path d="M244.486 145.304L239.511 147.351V150.28L244.577 148.203L244.486 145.304Z" fill="#EDF6F8"/>
<path d="M235.731 139.027C236.039 139.027 236.289 138.777 236.289 138.469C236.289 138.161 236.039 137.911 235.731 137.911C235.423 137.911 235.173 138.161 235.173 138.469C235.173 138.777 235.423 139.027 235.731 139.027Z" fill="#02AEF1"/>
<path d="M253.274 202.383H225.48L225.653 201.058H253.274V202.383Z" fill="#2D2617"/>
<path d="M240.394 201.058H238.361V202.383H240.394V201.058Z" fill="#EDF6F8"/>
<path d="M280.57 94.48H96.988V219.472H280.57V94.48Z" stroke="#002B58" stroke-width="0.790853" stroke-miterlimit="10"/>
<path d="M131.584 111.406H127.957V115.033H131.584V111.406Z" stroke="#002B58" stroke-width="0.790853" stroke-miterlimit="10"/>
<path d="M137.025 111.406H133.398V115.033H137.025V111.406Z" stroke="#002B58" stroke-width="0.790853" stroke-miterlimit="10"/>
<path d="M142.465 111.406H138.838V115.033H142.465V111.406Z" stroke="#002B58" stroke-width="0.790853" stroke-miterlimit="10"/>
<path d="M147.905 111.406H144.278V115.033H147.905V111.406Z" stroke="#002B58" stroke-width="0.790853" stroke-miterlimit="10"/>
<path d="M153.346 111.406H149.719V115.033H153.346V111.406Z" stroke="#002B58" stroke-width="0.790853" stroke-miterlimit="10"/>
<path d="M120.703 116.846H117.076V120.473H120.703V116.846Z" stroke="#002B58" stroke-width="0.790853" stroke-miterlimit="10"/>
<path d="M126.143 116.846H122.516V120.473H126.143V116.846Z" stroke="#002B58" stroke-width="0.790853" stroke-miterlimit="10"/>
<path d="M131.584 116.846H127.957V120.473H131.584V116.846Z" stroke="#002B58" stroke-width="0.790853" stroke-miterlimit="10"/>
<path d="M137.025 116.846H133.398V120.473H137.025V116.846Z" stroke="#002B58" stroke-width="0.790853" stroke-miterlimit="10"/>
<path d="M142.465 116.846H138.838V120.473H142.465V116.846Z" stroke="#002B58" stroke-width="0.790853" stroke-miterlimit="10"/>
<path d="M147.905 116.846H144.278V120.473H147.905V116.846Z" stroke="#002B58" stroke-width="0.790853" stroke-miterlimit="10"/>
<path d="M153.346 116.846H149.719V120.473H153.346V116.846Z" stroke="#002B58" stroke-width="0.790853" stroke-miterlimit="10"/>
<path d="M120.703 122.287H117.076V125.914H120.703V122.287Z" stroke="#002B58" stroke-width="0.790853" stroke-miterlimit="10"/>
<path d="M126.143 122.287H122.516V125.914H126.143V122.287Z" stroke="#002B58" stroke-width="0.790853" stroke-miterlimit="10"/>
<path d="M131.584 122.287H127.957V125.914H131.584V122.287Z" stroke="#002B58" stroke-width="0.790853" stroke-miterlimit="10"/>
<path d="M137.025 122.287H133.398V125.914H137.025V122.287Z" stroke="#002B58" stroke-width="0.790853" stroke-miterlimit="10"/>
<path d="M142.465 122.287H138.838V125.914H142.465V122.287Z" stroke="#002B58" stroke-width="0.790853" stroke-miterlimit="10"/>
<path d="M147.905 122.287H144.278V125.914H147.905V122.287Z" stroke="#002B58" stroke-width="0.790853" stroke-miterlimit="10"/>
<path d="M153.346 122.287H149.719V125.914H153.346V122.287Z" stroke="#002B58" stroke-width="0.790853" stroke-miterlimit="10"/>
<path d="M120.703 127.727H117.076V131.354H120.703V127.727Z" stroke="#002B58" stroke-width="0.790853" stroke-miterlimit="10"/>
<path d="M126.143 127.727H122.516V131.354H126.143V127.727Z" stroke="#002B58" stroke-width="0.790853" stroke-miterlimit="10"/>
<path d="M131.584 127.727H127.957V131.354H131.584V127.727Z" stroke="#002B58" stroke-width="0.790853" stroke-miterlimit="10"/>
<path d="M137.025 127.727H133.398V131.354H137.025V127.727Z" stroke="#002B58" stroke-width="0.790853" stroke-miterlimit="10"/>
<path d="M142.465 127.727H138.838V131.354H142.465V127.727Z" stroke="#002B58" stroke-width="0.790853" stroke-miterlimit="10"/>
<path d="M147.905 127.727H144.278V131.354H147.905V127.727Z" stroke="#002B58" stroke-width="0.790853" stroke-miterlimit="10"/>
<path d="M153.346 127.727H149.719V131.354H153.346V127.727Z" stroke="#002B58" stroke-width="0.790853" stroke-miterlimit="10"/>
<path d="M120.703 133.168H117.076V136.795H120.703V133.168Z" stroke="#002B58" stroke-width="0.790853" stroke-miterlimit="10"/>
<path d="M126.143 133.168H122.516V136.795H126.143V133.168Z" stroke="#002B58" stroke-width="0.790853" stroke-miterlimit="10"/>
<path d="M131.584 133.168H127.957V136.795H131.584V133.168Z" stroke="#002B58" stroke-width="0.790853" stroke-miterlimit="10"/>
<path d="M137.025 133.168H133.398V136.795H137.025V133.168Z" stroke="#002B58" stroke-width="0.790853" stroke-miterlimit="10"/>
<path d="M157.066 103.036H113.356V107.942H157.066V103.036Z" fill="#02AEF1"/>
<path d="M143.18 107.4H142.829L143.843 104.639H144.188L145.202 107.4H144.852L144.027 105.076H144.005L143.18 107.4ZM143.309 106.321H144.722V106.618H143.309V106.321ZM145.632 107.4V104.639H146.565C146.782 104.639 146.959 104.678 147.096 104.756C147.235 104.834 147.337 104.938 147.404 105.07C147.47 105.202 147.503 105.35 147.503 105.513C147.503 105.675 147.47 105.823 147.404 105.956C147.338 106.089 147.236 106.195 147.099 106.274C146.961 106.352 146.785 106.391 146.57 106.391H145.902V106.095H146.56C146.708 106.095 146.827 106.069 146.917 106.018C147.007 105.967 147.072 105.898 147.112 105.81C147.154 105.722 147.174 105.623 147.174 105.513C147.174 105.402 147.154 105.303 147.112 105.216C147.072 105.129 147.006 105.06 146.916 105.011C146.825 104.961 146.704 104.936 146.554 104.936H145.966V107.4H145.632ZM148.042 107.4V104.639H148.975C149.19 104.639 149.367 104.676 149.506 104.75C149.644 104.822 149.747 104.923 149.813 105.05C149.88 105.178 149.913 105.323 149.913 105.486C149.913 105.648 149.88 105.792 149.813 105.918C149.747 106.044 149.645 106.143 149.507 106.215C149.37 106.286 149.194 106.321 148.98 106.321H148.225V106.019H148.969C149.117 106.019 149.235 105.998 149.325 105.955C149.416 105.912 149.482 105.85 149.522 105.771C149.563 105.691 149.584 105.596 149.584 105.486C149.584 105.375 149.563 105.278 149.522 105.196C149.481 105.113 149.415 105.049 149.324 105.004C149.233 104.958 149.113 104.936 148.964 104.936H148.376V107.4H148.042ZM149.341 106.16L150.021 107.4H149.633L148.964 106.16H149.341ZM150.804 104.639V107.4H150.47V104.639H150.804ZM151.475 107.4V104.639H151.809V107.103H153.092V107.4H151.475Z" fill="#EDF6F8"/>
<path d="M157.066 103.036H113.356V139.957H157.066V103.036Z" stroke="#002B58" stroke-width="0.790853" stroke-miterlimit="10"/>
<path d="M205.998 146.222H181.307V147.272H205.998V146.222Z" fill="#D9245B"/>
<path d="M205.998 149.555H181.307V150.605H205.998V149.555Z" fill="#D9245B"/>
<path d="M205.998 152.887H181.307V153.938H205.998V152.887Z" fill="#D9245B"/>
<path d="M251.855 114.305V111.544H252.788C253.004 111.544 253.181 111.583 253.319 111.661C253.457 111.739 253.56 111.843 253.626 111.975C253.693 112.108 253.726 112.255 253.726 112.418C253.726 112.58 253.693 112.728 253.626 112.861C253.561 112.994 253.459 113.1 253.322 113.179C253.184 113.257 253.008 113.297 252.793 113.297H252.125V113H252.782C252.931 113 253.05 112.974 253.14 112.923C253.23 112.872 253.295 112.803 253.335 112.716C253.376 112.627 253.397 112.528 253.397 112.418C253.397 112.307 253.376 112.208 253.335 112.121C253.295 112.034 253.229 111.966 253.138 111.916C253.048 111.866 252.927 111.841 252.777 111.841H252.189V114.305H251.855ZM254.265 114.305V111.544H255.931V111.841H254.599V112.774H255.845V113.07H254.599V114.008H255.952V114.305H254.265ZM258.863 112.925C258.863 113.216 258.81 113.467 258.705 113.679C258.6 113.892 258.456 114.055 258.272 114.17C258.089 114.285 257.88 114.343 257.644 114.343C257.409 114.343 257.199 114.285 257.016 114.17C256.833 114.055 256.688 113.892 256.583 113.679C256.478 113.467 256.426 113.216 256.426 112.925C256.426 112.633 256.478 112.382 256.583 112.17C256.688 111.957 256.833 111.794 257.016 111.679C257.199 111.564 257.409 111.506 257.644 111.506C257.88 111.506 258.089 111.564 258.272 111.679C258.456 111.794 258.6 111.957 258.705 112.17C258.81 112.382 258.863 112.633 258.863 112.925ZM258.539 112.925C258.539 112.685 258.499 112.484 258.419 112.319C258.34 112.155 258.233 112.03 258.097 111.946C257.962 111.861 257.811 111.819 257.644 111.819C257.477 111.819 257.326 111.861 257.19 111.946C257.055 112.03 256.948 112.155 256.868 112.319C256.789 112.484 256.749 112.685 256.749 112.925C256.749 113.164 256.789 113.365 256.868 113.53C256.948 113.694 257.055 113.819 257.19 113.903C257.326 113.988 257.477 114.03 257.644 114.03C257.811 114.03 257.962 113.988 258.097 113.903C258.233 113.819 258.34 113.694 258.419 113.53C258.499 113.365 258.539 113.164 258.539 112.925ZM259.425 114.305V111.544H260.358C260.575 111.544 260.752 111.583 260.889 111.661C261.027 111.739 261.13 111.843 261.196 111.975C261.263 112.108 261.296 112.255 261.296 112.418C261.296 112.58 261.263 112.728 261.196 112.861C261.131 112.994 261.029 113.1 260.892 113.179C260.754 113.257 260.578 113.297 260.363 113.297H259.695V113H260.353C260.501 113 260.62 112.974 260.71 112.923C260.8 112.872 260.865 112.803 260.905 112.716C260.947 112.627 260.967 112.528 260.967 112.418C260.967 112.307 260.947 112.208 260.905 112.121C260.865 112.034 260.799 111.966 260.708 111.916C260.618 111.866 260.497 111.841 260.347 111.841H259.759V114.305H259.425ZM261.835 114.305V111.544H262.169V114.008H263.452V114.305H261.835ZM263.97 114.305V111.544H265.636V111.841H264.304V112.774H265.55V113.07H264.304V114.008H265.658V114.305H263.97Z" fill="#02AEF1"/>
<path d="M274.084 105.489H241.138V192.304H274.084V105.489Z" stroke="#002B58" stroke-width="0.790853" stroke-miterlimit="10"/>
<path d="M265.529 118.343H247.952V119.719H265.529V118.343Z" fill="#D9245B"/>
<path d="M269.308 119.031C269.308 118.651 269 118.343 268.62 118.343C268.24 118.343 267.932 118.651 267.932 119.031C267.932 119.411 268.24 119.719 268.62 119.719C269 119.719 269.308 119.411 269.308 119.031Z" fill="#D9245B"/>
<path d="M265.529 124.296H247.952V125.672H265.529V124.296Z" fill="#D9245B"/>
<path d="M269.308 124.983C269.308 124.603 269 124.295 268.62 124.295C268.24 124.295 267.932 124.603 267.932 124.983C267.932 125.363 268.24 125.671 268.62 125.671C269 125.671 269.308 125.363 269.308 124.983Z" fill="#D9245B"/>
<path d="M265.529 130.247H247.952V131.623H265.529V130.247Z" fill="#D9245B"/>
<path d="M269.308 130.935C269.308 130.555 269 130.247 268.62 130.247C268.24 130.247 267.932 130.555 267.932 130.935C267.932 131.315 268.24 131.623 268.62 131.623C269 131.623 269.308 131.315 269.308 130.935Z" fill="#D9245B"/>
<path d="M265.529 136.199H247.952V137.575H265.529V136.199Z" fill="#D9245B"/>
<path d="M269.308 136.887C269.308 136.507 269 136.199 268.62 136.199C268.24 136.199 267.932 136.507 267.932 136.887C267.932 137.267 268.24 137.575 268.62 137.575C269 137.575 269.308 137.267 269.308 136.887Z" fill="#D9245B"/>
<path d="M265.529 142.151H247.952V143.527H265.529V142.151Z" fill="#D9245B"/>
<path d="M269.308 142.839C269.308 142.459 269 142.151 268.62 142.151C268.24 142.151 267.932 142.459 267.932 142.839C267.932 143.219 268.24 143.527 268.62 143.527C269 143.527 269.308 143.219 269.308 142.839Z" fill="#D9245B"/>
<path d="M265.529 148.103H247.952V149.479H265.529V148.103Z" fill="#D9245B"/>
<path d="M269.308 148.791C269.308 148.411 269 148.103 268.62 148.103C268.24 148.103 267.932 148.411 267.932 148.791C267.932 149.171 268.24 149.479 268.62 149.479C269 149.479 269.308 149.171 269.308 148.791Z" fill="#D9245B"/>
<path d="M265.529 154.055H247.952V155.431H265.529V154.055Z" fill="#D9245B"/>
<path d="M269.308 154.743C269.308 154.363 269 154.055 268.62 154.055C268.24 154.055 267.932 154.363 267.932 154.743C267.932 155.123 268.24 155.431 268.62 155.431C269 155.431 269.308 155.123 269.308 154.743Z" fill="#D9245B"/>
<path d="M202.193 119.947C198.87 118.671 195.262 117.972 191.489 117.972C174.995 117.972 161.625 131.343 161.625 147.837C161.625 155.735 164.691 162.918 169.698 168.258" stroke="#002B58" stroke-width="0.790853" stroke-miterlimit="10" stroke-linecap="round" stroke-linejoin="round"/>
<path d="M171.846 170.333C177.097 174.921 183.968 177.701 191.49 177.701C200.147 177.701 207.943 174.018 213.398 168.133" stroke="#002B58" stroke-width="0.790853" stroke-miterlimit="10" stroke-linecap="round" stroke-linejoin="round"/>
<path d="M174.101 170.319H171.846V172.574" stroke="#002B58" stroke-width="0.790853" stroke-miterlimit="10" stroke-linecap="round" stroke-linejoin="round"/>
<path d="M174.382 192.255V191.884H176.97V192.255H175.885V195.335H175.467V192.255H174.382ZM177.354 195.335H176.915L178.183 191.884H178.614L179.881 195.335H179.443L178.412 192.43H178.385L177.354 195.335ZM177.515 193.987H179.281V194.358H177.515V193.987ZM182.306 192.747C182.286 192.576 182.204 192.444 182.06 192.349C181.916 192.255 181.74 192.208 181.531 192.208C181.378 192.208 181.244 192.232 181.13 192.282C181.016 192.331 180.928 192.399 180.864 192.486C180.801 192.572 180.769 192.67 180.769 192.781C180.769 192.873 180.791 192.952 180.835 193.018C180.88 193.083 180.937 193.138 181.007 193.182C181.076 193.224 181.149 193.26 181.226 193.288C181.302 193.315 181.372 193.337 181.436 193.353L181.787 193.448C181.877 193.471 181.977 193.504 182.087 193.546C182.198 193.587 182.304 193.644 182.405 193.716C182.508 193.787 182.592 193.878 182.658 193.989C182.724 194.1 182.758 194.236 182.758 194.398C182.758 194.585 182.709 194.753 182.611 194.904C182.514 195.054 182.373 195.174 182.186 195.263C182.001 195.351 181.776 195.396 181.511 195.396C181.263 195.396 181.049 195.356 180.869 195.276C180.689 195.196 180.547 195.085 180.444 194.943C180.342 194.8 180.284 194.634 180.27 194.445H180.702C180.713 194.576 180.757 194.684 180.833 194.769C180.911 194.853 181.008 194.916 181.126 194.958C181.245 194.998 181.374 195.018 181.511 195.018C181.67 195.018 181.813 194.993 181.94 194.941C182.067 194.888 182.168 194.815 182.242 194.722C182.316 194.627 182.353 194.517 182.353 194.392C182.353 194.277 182.321 194.184 182.257 194.112C182.193 194.04 182.109 193.981 182.004 193.937C181.9 193.892 181.787 193.852 181.666 193.819L181.241 193.697C180.971 193.62 180.758 193.509 180.601 193.365C180.443 193.221 180.365 193.033 180.365 192.801C180.365 192.608 180.417 192.439 180.521 192.295C180.627 192.15 180.769 192.038 180.946 191.958C181.125 191.877 181.324 191.837 181.544 191.837C181.767 191.837 181.964 191.877 182.137 191.957C182.31 192.035 182.448 192.143 182.549 192.28C182.651 192.417 182.705 192.573 182.71 192.747H182.306ZM183.445 195.335V191.884H183.863V193.596H183.903L185.453 191.884H185.999L184.55 193.441L185.999 195.335H185.494L184.294 193.731L183.863 194.216V195.335H183.445ZM188.427 192.747C188.407 192.576 188.325 192.444 188.181 192.349C188.038 192.255 187.861 192.208 187.652 192.208C187.499 192.208 187.366 192.232 187.251 192.282C187.138 192.331 187.049 192.399 186.985 192.486C186.922 192.572 186.891 192.67 186.891 192.781C186.891 192.873 186.913 192.952 186.956 193.018C187.001 193.083 187.059 193.138 187.128 193.182C187.198 193.224 187.271 193.26 187.347 193.288C187.424 193.315 187.494 193.337 187.558 193.353L187.908 193.448C187.998 193.471 188.098 193.504 188.208 193.546C188.32 193.587 188.426 193.644 188.527 193.716C188.629 193.787 188.713 193.878 188.78 193.989C188.846 194.1 188.879 194.236 188.879 194.398C188.879 194.585 188.83 194.753 188.732 194.904C188.636 195.054 188.494 195.174 188.308 195.263C188.122 195.351 187.897 195.396 187.632 195.396C187.385 195.396 187.171 195.356 186.99 195.276C186.81 195.196 186.669 195.085 186.565 194.943C186.463 194.8 186.405 194.634 186.392 194.445H186.823C186.834 194.576 186.878 194.684 186.955 194.769C187.032 194.853 187.13 194.916 187.248 194.958C187.367 194.998 187.495 195.018 187.632 195.018C187.792 195.018 187.935 194.993 188.062 194.941C188.189 194.888 188.289 194.815 188.363 194.722C188.438 194.627 188.475 194.517 188.475 194.392C188.475 194.277 188.443 194.184 188.379 194.112C188.315 194.04 188.23 193.981 188.126 193.937C188.021 193.892 187.908 193.852 187.787 193.819L187.362 193.697C187.093 193.62 186.879 193.509 186.722 193.365C186.565 193.221 186.486 193.033 186.486 192.801C186.486 192.608 186.538 192.439 186.643 192.295C186.749 192.15 186.89 192.038 187.068 191.958C187.246 191.877 187.446 191.837 187.666 191.837C187.888 191.837 188.086 191.877 188.259 191.957C188.432 192.035 188.569 192.143 188.67 192.28C188.772 192.417 188.826 192.573 188.832 192.747H188.427Z" fill="#32A7D8"/>
<path d="M198.614 197.31H173.922V198.361H198.614V197.31Z" fill="#D9245B"/>
<path d="M198.614 199.942H173.922V200.993H198.614V199.942Z" fill="#D9245B"/>
<path d="M198.614 202.574H173.922V203.624H198.614V202.574Z" fill="#D9245B"/>
<path d="M198.614 205.205H173.922V206.256H198.614V205.205Z" fill="#D9245B"/>
<path d="M198.614 207.836H173.922V208.887H198.614V207.836Z" fill="#D9245B"/>
<path d="M198.614 210.468H173.922V211.518H198.614V210.468Z" fill="#D9245B"/>
<path d="M202.404 188.085H169.572V215.287H202.404V188.085Z" stroke="#002B58" stroke-width="0.790853" stroke-miterlimit="10"/>
<path d="M126.841 172.507L104.335 218.728L100.057 216.961C100.057 216.961 120.01 162.481 120.847 160.063C121.684 157.646 122.757 155.849 124.711 155.238C126.665 154.629 126.841 172.507 126.841 172.507Z" fill="#FFC7A4"/>
<path d="M111.984 190.665C112.263 191.851 113.17 192.828 114.495 191.991" stroke="#E29771" stroke-width="0.790853" stroke-miterlimit="10" stroke-linecap="round"/>
<path d="M85.6422 210.916L116.704 225.889L125.818 206.917L95.872 190.665L85.6422 210.916Z" fill="#2C2929"/>
<path d="M95.8719 190.665L105.73 209.614L125.818 206.917L95.8719 190.665Z" fill="#0F0F10"/>
<path d="M107.207 208.033C107.649 208.033 108.008 207.674 108.008 207.231C108.008 206.788 107.649 206.429 107.207 206.429C106.764 206.429 106.405 206.788 106.405 207.231C106.405 207.674 106.764 208.033 107.207 208.033Z" fill="#E8B8B5"/>
<path d="M100.299 221.215C98.3546 220.407 97.0908 218.983 98.0321 216.925C98.9735 214.867 100.055 214.239 101.38 214.588C102.705 214.937 106.086 215.629 106.089 217.483C106.09 219.088 105.844 223.516 100.299 221.215Z" fill="#FFC7A4"/>
<path d="M152.137 152.605C152.137 152.605 188.221 125.914 190.174 124.426C192.127 122.938 194.266 125.635 192.592 127.867C190.918 130.099 161.344 158.185 158.647 161.533C155.95 164.881 154.892 166.527 152.701 172.865C150.51 179.203 139.007 162.32 152.137 152.605Z" fill="#FFC7A4"/>
<path d="M172.458 143.77C173.806 144.003 175.666 143.816 175.806 141.724" stroke="#E29771" stroke-width="0.790853" stroke-miterlimit="10" stroke-linecap="round"/>
<path d="M191.15 128.344C191.122 127.807 192.959 123.914 193.89 121.853C193.533 121.262 194.273 119.545 194.498 118.846C194.731 118.125 193.801 118.312 193.034 119.241C192.266 120.171 190.336 124.156 189.322 125.065C187.771 126.455 189.465 128.665 191.284 128.554C191.202 128.474 191.154 128.403 191.15 128.344Z" fill="#FFC7A4"/>
<path d="M202.436 119.961L200.419 118.542L181.745 115.152L181.184 116.937L200.337 120.086L202.436 119.961Z" fill="#082855"/>
<path d="M198.014 124.614C198.808 123.807 200.642 121.94 200.683 120.139C200.725 118.338 199.834 118.154 199.613 119.235C199.393 120.315 195.827 126.833 198.014 124.614Z" fill="#FFC7A4"/>
<path d="M196.56 125.762C197.171 125.326 198.466 124.511 199.059 123.3C199.651 122.088 199.316 118.937 198.45 117.884C197.739 117.02 196.846 117.477 197.2 118.572C197.555 119.667 198.162 121.804 197.61 122.701C197.058 123.599 195.218 126.72 196.56 125.762Z" fill="#FFC7A4"/>
<path d="M198.498 119.171C198.033 117.73 197.266 117.265 196.521 117.172C195.777 117.079 195.405 117.567 195.917 117.939C196.429 118.312 196.893 119.637 196.684 120.497C196.475 121.357 194.359 122.45 193.918 121.915C193.785 121.754 193.771 121.472 193.813 121.143L193 121.688L190.454 126.95C190.454 126.95 189.623 126.466 188.796 125.868C188.299 127.454 190.488 129.309 192.254 128.262C194.334 127.03 196.561 126.281 197.638 124.508C199.056 122.171 198.963 120.613 198.498 119.171Z" fill="#FFC7A4"/>
<path d="M186.919 126.309L189.081 128.568L190.174 127.588L188.128 125.333L186.919 126.309Z" fill="#021258"/>
<path d="M191.958 127.679C191.307 127.087 190.22 127.221 189.53 127.98C188.839 128.738 188.808 129.833 189.459 130.426C190.11 131.018 191.198 130.884 191.888 130.126C192.578 129.367 192.61 128.273 191.958 127.679Z" fill="#021258"/>
<path d="M124.982 176.324L126.841 172.507C126.841 172.507 126.665 154.628 124.711 155.238C122.758 155.848 121.684 157.645 120.847 160.063C120.664 160.591 119.571 163.599 117.973 167.98C120.428 170.953 122.97 173.961 124.982 176.324Z" fill="#D9245B"/>
<path d="M152.701 172.865C154.892 166.527 155.95 164.881 158.647 161.533C158.985 161.114 159.745 160.306 160.818 159.21C159.595 156.098 158.052 152.33 156.62 149.288C153.881 151.316 152.137 152.605 152.137 152.605C139.007 162.32 150.51 179.203 152.701 172.865Z" fill="#D9245B"/>
<path d="M128.422 292.012V294.523L134.688 295.256L135.978 294.523L136.041 293.779L135.699 290.896L128.422 292.012Z" fill="white"/>
<path d="M169.772 290.443L170.714 294.209H164.541L163.948 292.012L169.772 290.443Z" fill="white"/>
<path d="M124.711 155.238C137.2 151.121 151.207 150.838 154.183 151.489C157.159 152.14 149.068 193.245 149.068 193.245L173.434 290.338C173.434 290.338 171.272 291.803 163.948 292.012L137.164 213.055V292.012C137.164 292.012 133.258 293.128 128.422 292.012C128.422 292.012 118.053 229.516 120.703 213.753C123.354 197.989 127.26 193.804 127.26 193.804C127.26 193.804 121.782 156.204 124.711 155.238Z" fill="#021258"/>
<path d="M132.456 193.107H131.096V197.815H132.456V193.107Z" fill="#001052"/>
<path d="M144.383 193.107H143.023V197.815H144.383V193.107Z" fill="#001052"/>
<path d="M128.69 293.303C127.068 292.968 127.299 298.43 127.346 300.847H138.28C138.28 300.847 138.384 296.218 136.041 293.288C136.041 293.288 132.967 294.186 128.69 293.303Z" fill="#001052"/>
<path d="M164.336 293.268C163.778 295.406 162.987 298.243 163.034 300.847H183.773C183.773 300.847 184.61 299.219 180.193 297.964C175.775 296.708 172.845 294.569 171.544 292.848C171.544 292.848 166.475 293.732 164.336 293.268Z" fill="#001052"/>
<path d="M136.327 148.885C136.431 150.734 136.199 154.535 139.559 154.151C142.919 153.768 143.546 151.326 143.267 148.502C142.988 145.677 136.327 148.885 136.327 148.885Z" fill="#FFC7A4"/>
<path d="M149.44 132.005C149.44 132.005 152.184 136.655 152.369 139.632C152.555 142.607 151.858 143.91 147.812 144.096C143.767 144.281 144.278 133.121 144.278 133.121L149.44 132.005Z" fill="#FFC7A4"/>
<path d="M126.841 149.125C133.049 150.768 142.256 152.024 152.37 146.723C152.37 146.723 150.277 141.073 150.626 134.656C150.975 128.239 145.255 123.845 140.931 123.705C136.606 123.566 129.561 125.031 127.608 134.098C126.355 139.92 126.841 149.125 126.841 149.125Z" fill="#002B58"/>
</svg>
