<svg width="28" height="28" viewBox="0 0 28 28" fill="none" xmlns="http://www.w3.org/2000/svg">
<path d="M-0.0065918 14C-0.0065918 10.287 1.4684 6.72601 4.09391 4.10051C6.71942 1.475 10.2804 0 13.9934 0C17.7064 0 21.2674 1.475 23.8929 4.10051C26.5184 6.72601 27.9934 10.287 27.9934 14C27.9934 17.713 26.5184 21.274 23.8929 23.8995C21.2674 26.525 17.7064 28 13.9934 28C10.2804 28 6.71942 26.525 4.09391 23.8995C1.4684 21.274 -0.0065918 17.713 -0.0065918 14ZM17.4934 19.25C17.4934 17.7789 16.5911 16.5211 15.3059 16.007V4.8125C15.3059 4.08516 14.7208 3.5 13.9934 3.5C13.2661 3.5 12.6809 4.08516 12.6809 4.8125V16.007C11.3958 16.5266 10.4934 17.7844 10.4934 19.25C10.4934 21.1805 12.0629 22.75 13.9934 22.75C15.9239 22.75 17.4934 21.1805 17.4934 19.25ZM7.86841 9.625C8.33254 9.625 8.77766 9.44063 9.10584 9.11244C9.43403 8.78425 9.61841 8.33913 9.61841 7.875C9.61841 7.41087 9.43403 6.96575 9.10584 6.63756C8.77766 6.30937 8.33254 6.125 7.86841 6.125C7.40428 6.125 6.95916 6.30937 6.63097 6.63756C6.30278 6.96575 6.11841 7.41087 6.11841 7.875C6.11841 8.33913 6.30278 8.78425 6.63097 9.11244C6.95916 9.44063 7.40428 9.625 7.86841 9.625ZM6.99341 14C6.99341 13.5359 6.80903 13.0908 6.48084 12.7626C6.15266 12.4344 5.70754 12.25 5.24341 12.25C4.77928 12.25 4.33416 12.4344 4.00597 12.7626C3.67778 13.0908 3.49341 13.5359 3.49341 14C3.49341 14.4641 3.67778 14.9092 4.00597 15.2374C4.33416 15.5656 4.77928 15.75 5.24341 15.75C5.70754 15.75 6.15266 15.5656 6.48084 15.2374C6.80903 14.9092 6.99341 14.4641 6.99341 14ZM22.7434 15.75C23.2075 15.75 23.6527 15.5656 23.9808 15.2374C24.309 14.9092 24.4934 14.4641 24.4934 14C24.4934 13.5359 24.309 13.0908 23.9808 12.7626C23.6527 12.4344 23.2075 12.25 22.7434 12.25C22.2793 12.25 21.8342 12.4344 21.506 12.7626C21.1778 13.0908 20.9934 13.5359 20.9934 14C20.9934 14.4641 21.1778 14.9092 21.506 15.2374C21.8342 15.5656 22.2793 15.75 22.7434 15.75ZM21.8684 7.875C21.8684 7.41087 21.684 6.96575 21.3558 6.63756C21.0277 6.30937 20.5825 6.125 20.1184 6.125C19.6543 6.125 19.2092 6.30937 18.881 6.63756C18.5528 6.96575 18.3684 7.41087 18.3684 7.875C18.3684 8.33913 18.5528 8.78425 18.881 9.11244C19.2092 9.44063 19.6543 9.625 20.1184 9.625C20.5825 9.625 21.0277 9.44063 21.3558 9.11244C21.684 8.78425 21.8684 8.33913 21.8684 7.875Z" fill="#5D5D5D"/>
</svg>
