<svg width="29" height="28" viewBox="0 0 29 28" fill="none" xmlns="http://www.w3.org/2000/svg">
<path d="M0.391602 14C0.391602 10.287 1.8666 6.72601 4.49211 4.10051C7.11762 1.475 10.6786 0 14.3916 0C18.1046 0 21.6656 1.475 24.2911 4.10051C26.9166 6.72601 28.3916 10.287 28.3916 14C28.3916 17.713 26.9166 21.274 24.2911 23.8995C21.6656 26.525 18.1046 28 14.3916 28C10.6786 28 7.11762 26.525 4.49211 23.8995C1.8666 21.274 0.391602 17.713 0.391602 14ZM17.8916 19.25C17.8916 17.7789 16.9893 16.5211 15.7041 16.007V4.8125C15.7041 4.08516 15.1189 3.5 14.3916 3.5C13.6643 3.5 13.0791 4.08516 13.0791 4.8125V16.007C11.7939 16.5266 10.8916 17.7844 10.8916 19.25C10.8916 21.1805 12.4611 22.75 14.3916 22.75C16.3221 22.75 17.8916 21.1805 17.8916 19.25ZM8.2666 9.625C8.73073 9.625 9.17585 9.44063 9.50404 9.11244C9.83223 8.78425 10.0166 8.33913 10.0166 7.875C10.0166 7.41087 9.83223 6.96575 9.50404 6.63756C9.17585 6.30937 8.73073 6.125 8.2666 6.125C7.80247 6.125 7.35735 6.30937 7.02916 6.63756C6.70098 6.96575 6.5166 7.41087 6.5166 7.875C6.5166 8.33913 6.70098 8.78425 7.02916 9.11244C7.35735 9.44063 7.80247 9.625 8.2666 9.625ZM7.3916 14C7.3916 13.5359 7.20723 13.0908 6.87904 12.7626C6.55085 12.4344 6.10573 12.25 5.6416 12.25C5.17747 12.25 4.73235 12.4344 4.40416 12.7626C4.07598 13.0908 3.8916 13.5359 3.8916 14C3.8916 14.4641 4.07598 14.9092 4.40416 15.2374C4.73235 15.5656 5.17747 15.75 5.6416 15.75C6.10573 15.75 6.55085 15.5656 6.87904 15.2374C7.20723 14.9092 7.3916 14.4641 7.3916 14ZM23.1416 15.75C23.6057 15.75 24.0508 15.5656 24.379 15.2374C24.7072 14.9092 24.8916 14.4641 24.8916 14C24.8916 13.5359 24.7072 13.0908 24.379 12.7626C24.0508 12.4344 23.6057 12.25 23.1416 12.25C22.6775 12.25 22.2324 12.4344 21.9042 12.7626C21.576 13.0908 21.3916 13.5359 21.3916 14C21.3916 14.4641 21.576 14.9092 21.9042 15.2374C22.2324 15.5656 22.6775 15.75 23.1416 15.75ZM22.2666 7.875C22.2666 7.41087 22.0822 6.96575 21.754 6.63756C21.4258 6.30937 20.9807 6.125 20.5166 6.125C20.0525 6.125 19.6074 6.30937 19.2792 6.63756C18.951 6.96575 18.7666 7.41087 18.7666 7.875C18.7666 8.33913 18.951 8.78425 19.2792 9.11244C19.6074 9.44063 20.0525 9.625 20.5166 9.625C20.9807 9.625 21.4258 9.44063 21.754 9.11244C22.0822 8.78425 22.2666 8.33913 22.2666 7.875Z" fill="#D9245B"/>
</svg>
