<svg width="32" height="32" viewBox="0 0 32 32" fill="none" xmlns="http://www.w3.org/2000/svg">
<path d="M24.0131 24.5172C19.3125 28.8891 11.9447 28.8118 7.36976 24.2698C5.56851 22.49 4.39145 20.1752 4.01442 17.6712L0 17.8045C0.422623 21.32 2.02445 24.5884 4.54401 27.0762C10.671 33.1626 20.565 33.236 26.8311 27.3139L30.2174 30.6789L30.7991 20.0292L19.5232 20.0582L24.0131 24.5172ZM0.898751 11.6698L12.1747 11.6409L7.68674 7.18189C12.3912 2.8099 19.759 2.88721 24.3301 7.42929C26.1313 9.20907 27.3084 11.5239 27.6854 14.0279L31.6979 13.8945C31.2732 10.3795 29.6725 7.11129 27.1558 4.62093C21.025 -1.46351 11.131 -1.53696 4.86872 4.38513L1.47859 1.02013L0.898751 11.6698Z" fill="white"/>
</svg>
