<svg width="29" height="23" viewBox="0 0 29 23" fill="none" xmlns="http://www.w3.org/2000/svg">
<path d="M0.84525 22.1562C1.40779 22.7187 2.08437 23 2.875 23H25.875C26.6666 23.001 27.3436 22.7197 27.9062 22.1562C28.4687 21.5927 28.75 20.9156 28.75 20.125V2.875C28.751 2.08533 28.4697 1.40875 27.9062 0.84525C27.3427 0.28175 26.6656 0 25.875 0H2.875C2.08533 0.000958333 1.40875 0.282708 0.84525 0.84525C0.28175 1.40779 0 2.08437 0 2.875V20.125C0.000958333 20.9166 0.282708 21.5936 0.84525 22.1562Z" fill="#D9245B"/>
<path d="M14.3771 15.1957L28.7543 6.21001V2.61572L14.3771 11.6014L2.38454e-06 2.61572V6.21001L14.3771 15.1957Z" fill="white"/>
</svg>
